<?xml version="1.0" standalone="no"?>
<!DOCTYPE svg PUBLIC "-//W3C//DTD SVG 20010904//EN"
 "http://www.w3.org/TR/2001/REC-SVG-20010904/DTD/svg10.dtd">
<svg version="1.0" xmlns="http://www.w3.org/2000/svg"
 width="1024.000000pt" height="1024.000000pt" viewBox="0 0 1024.000000 1024.000000"
 preserveAspectRatio="xMidYMid meet">

<g transform="translate(0.000000,1024.000000) scale(0.100000,-0.100000)"
fill="#000000" stroke="none">
<path d="M1367 9403 c-4 -3 -7 -30 -7 -60 l0 -53 55 0 55 0 0 60 0 60 -48 0
c-27 0 -52 -3 -55 -7z m68 -54 c8 -35 3 -44 -20 -36 -20 8 -21 67 -1 67 8 0
17 -14 21 -31z"/>
<path d="M1530 9406 c-3 -2 -3 -29 -2 -60 l4 -56 59 0 60 0 -3 58 -3 57 -55 3
c-31 2 -58 1 -60 -2z m68 -64 c2 -24 -1 -32 -12 -32 -12 0 -16 10 -16 36 0 45
24 42 28 -4z"/>
<path d="M1700 9350 l0 -60 70 0 70 0 0 60 0 60 -70 0 -70 0 0 -60z m90 -5 c0
-31 -3 -35 -25 -35 -22 0 -25 4 -25 35 0 31 3 35 25 35 22 0 25 -4 25 -35z"/>
<path d="M1900 9344 c0 -64 1 -66 23 -60 12 3 38 6 58 6 l36 0 0 60 0 60 -58
0 -59 0 0 -66z m70 27 c5 -11 10 -29 10 -41 0 -16 -5 -21 -22 -18 -13 2 -22 6
-20 11 1 4 2 21 2 37 0 34 14 39 30 11z"/>
<path d="M2128 9402 c-29 -3 -40 -32 -13 -32 11 0 15 -12 15 -45 0 -42 2 -45
26 -45 14 0 23 4 20 9 -3 4 -6 32 -7 60 -2 58 -3 58 -41 53z"/>
<path d="M2310 9345 l0 -65 60 0 60 0 0 49 c0 76 -4 81 -66 81 l-54 0 0 -65z
m70 0 c0 -38 -3 -45 -20 -45 -17 0 -20 7 -20 38 0 41 6 52 27 52 9 0 13 -14
13 -45z"/>
<path d="M647 9393 c-12 -11 -8 -23 8 -23 11 0 15 -12 15 -44 0 -40 11 -56 36
-56 2 0 4 29 4 65 0 65 0 65 -28 65 -16 0 -32 -3 -35 -7z"/>
<path d="M1180 9371 c0 -16 3 -43 6 -60 6 -27 10 -31 38 -30 17 1 23 3 14 6
-14 3 -18 15 -18 53 0 38 4 50 18 53 9 3 0 5 -20 6 -35 1 -38 -1 -38 -28z"/>
<path d="M2490 9340 l0 -60 60 0 c33 0 60 3 61 8 4 33 5 89 1 100 -3 8 -25 12
-63 12 l-59 0 0 -60z m90 -3 c0 -42 -1 -43 -28 -39 -25 3 -27 6 -24 43 4 33 7
39 28 39 22 0 24 -4 24 -43z"/>
<path d="M3059 9394 c-19 -6 -29 -33 -29 -81 l0 -33 65 0 66 0 -3 58 -3 57
-40 2 c-22 0 -47 -1 -56 -3z m61 -33 c0 -5 3 -22 6 -38 6 -29 5 -30 -33 -28
-32 2 -38 6 -40 26 -1 15 0 17 3 7 9 -29 24 -21 24 12 0 23 4 30 20 30 11 0
20 -4 20 -9z"/>
<path d="M3228 9393 c-14 -4 -18 -15 -18 -58 l0 -53 40 0 c22 0 40 3 40 9 0 5
-10 9 -21 9 -17 0 -20 4 -15 23 3 12 6 27 6 33 0 7 9 14 20 17 17 4 20 0 20
-25 0 -33 16 -68 30 -68 6 0 10 26 10 58 l0 57 -48 1 c-26 1 -55 0 -64 -3z"/>
<path d="M3875 9390 c-4 -6 -4 -33 0 -60 6 -40 11 -50 26 -50 17 0 19 8 19 60
0 53 -2 60 -19 60 -11 0 -23 -5 -26 -10z"/>
<path d="M4069 9392 c-16 -2 -29 -11 -32 -22 -3 -12 0 -17 7 -14 8 3 13 -9 14
-33 3 -44 5 -46 29 -41 16 3 17 10 13 58 -5 53 -6 55 -31 52z"/>
<path d="M4583 9393 c-21 -4 -23 -10 -23 -59 l0 -54 35 0 c39 0 42 4 20 26
-17 18 -6 57 19 62 13 3 16 -5 16 -42 0 -39 3 -46 20 -46 18 0 20 7 20 60 l0
60 -42 -1 c-24 -1 -53 -4 -65 -6z"/>
<path d="M4784 9389 c-2 -4 -13 -5 -24 -2 -18 5 -20 0 -20 -50 l0 -54 47 -1
c44 -1 50 12 9 20 -14 2 -19 12 -20 35 -1 27 3 32 27 36 24 3 27 0 27 -24 0
-38 9 -59 26 -59 10 0 14 14 14 49 l0 49 -41 4 c-22 2 -42 1 -45 -3z"/>
<path d="M5503 9392 c-5 -4 -13 -14 -16 -22 -4 -12 -6 -11 -6 3 -1 9 -5 17
-11 17 -6 0 -7 -19 -4 -47 6 -54 11 -63 23 -44 7 10 10 9 14 -3 7 -18 52 -22
62 -6 4 6 11 8 16 5 5 -4 9 14 9 39 0 25 -4 48 -10 51 -15 9 -66 14 -77 7z
m50 -49 c5 -46 2 -53 -22 -46 -13 3 -20 16 -23 39 -5 39 -2 44 23 44 12 0 18
-10 22 -37z"/>
<path d="M5693 9393 c-33 -4 -33 -5 -33 -59 l0 -54 60 0 60 0 0 60 c0 67 4 64
-87 53z m51 -45 c10 -40 7 -46 -26 -50 -31 -3 -33 -1 -34 27 -1 16 1 22 3 13
7 -27 23 -22 23 7 0 31 25 33 34 3z"/>
<path d="M5840 9340 l0 -60 54 0 c60 0 66 7 66 83 l0 37 -60 0 -60 0 0 -60z
m85 -6 c7 -42 4 -48 -24 -39 -29 9 -31 75 -2 75 14 0 21 -10 26 -36z"/>
<path d="M6078 9393 c-29 -4 -40 -33 -13 -33 11 0 15 -11 15 -40 0 -35 3 -40
23 -40 20 0 22 5 22 57 0 59 -3 62 -47 56z"/>
<path d="M6984 9392 c-16 -6 -21 -17 -23 -59 l-2 -53 60 0 61 0 0 60 0 60 -37
-1 c-21 -1 -47 -4 -59 -7z m60 -44 c10 -38 7 -58 -9 -58 -12 0 -15 10 -13 40
3 44 12 52 22 18z m-42 -50 c-7 -7 -12 -8 -12 -2 0 14 12 26 19 19 2 -3 -1
-11 -7 -17z"/>
<path d="M7140 9342 l0 -59 63 1 62 1 0 55 0 55 -62 3 -63 3 0 -59z m95 -4 c0
-35 -3 -38 -35 -38 -16 0 -20 7 -20 35 0 28 4 35 20 35 11 0 20 6 20 13 0 9 2
9 8 0 4 -7 8 -27 7 -45z"/>
<path d="M7320 9384 c0 -14 3 -14 15 -4 8 7 15 8 15 3 0 -5 14 -8 30 -5 29 4
30 3 30 -37 0 -37 -2 -41 -25 -41 -21 0 -25 5 -25 30 0 35 -19 41 -21 8 -1
-22 -1 -22 -9 2 -8 24 -8 24 -9 -5 -1 -39 15 -55 54 -54 27 0 82 17 61 18 -5
1 -3 8 5 17 10 13 10 17 -1 24 -7 4 -10 15 -7 23 9 24 -14 37 -65 37 -38 0
-48 -4 -48 -16z"/>
<path d="M7500 9340 l0 -60 40 0 c22 0 40 5 40 10 0 9 -31 15 -54 11 -5 -1 -4
5 3 13 8 9 11 27 9 41 -5 22 -2 25 23 25 27 0 29 -2 29 -43 0 -48 5 -58 26
-50 10 3 14 22 14 59 l0 54 -65 0 -65 0 0 -60z"/>
<path d="M7682 9391 c-9 -5 -12 -24 -10 -56 2 -39 7 -49 26 -56 21 -8 21 -7
11 13 -7 12 -9 39 -5 64 6 44 2 51 -22 35z"/>
<path d="M9003 9393 c-23 -4 -32 -28 -13 -35 5 -1 11 -20 12 -40 2 -30 7 -38
23 -38 18 0 20 5 17 60 -2 33 -7 59 -10 59 -4 -1 -17 -4 -29 -6z"/>
<path d="M9175 9391 c-3 -6 2 -14 11 -19 12 -7 15 -20 12 -51 -3 -38 -2 -41
22 -41 24 0 25 3 25 60 l1 60 -33 0 c-17 0 -34 -4 -38 -9z"/>
<path d="M992 9338 c4 -70 23 -72 24 -3 0 41 -3 55 -13 55 -11 0 -13 -13 -11
-52z"/>
<path d="M2670 9335 l0 -55 60 0 60 0 0 55 0 55 -60 0 -60 0 0 -55z m82 9 c-4
-20 -2 -25 8 -19 9 6 10 3 1 -14 -20 -36 -41 -26 -41 19 0 32 4 40 19 40 14 0
17 -6 13 -26z"/>
<path d="M2864 9376 c-3 -8 -4 -27 -1 -43 l4 -28 14 33 c19 46 32 40 27 -13
l-6 -45 34 0 34 0 0 55 0 55 -50 0 c-34 0 -52 -5 -56 -14z"/>
<path d="M3390 9336 l0 -53 60 -2 60 -2 0 56 0 55 -60 0 -60 0 0 -54z m80 0
c0 -39 -2 -44 -20 -39 -15 4 -20 14 -20 37 0 36 6 46 27 46 9 0 13 -14 13 -44z"/>
<path d="M3640 9335 c0 -48 2 -55 20 -55 18 0 20 7 20 55 0 48 -2 55 -20 55
-18 0 -20 -7 -20 -55z"/>
<path d="M4231 9381 c-22 -14 -6 -40 20 -34 20 6 21 3 17 -31 -3 -30 -1 -36
14 -36 12 0 18 8 19 23 0 12 2 37 5 55 4 30 2 32 -29 32 -17 0 -38 -4 -46 -9z"/>
<path d="M4380 9335 l0 -55 60 0 60 0 0 55 0 55 -60 0 -60 0 0 -55z m54 15 c3
-11 9 -29 12 -40 4 -16 1 -20 -20 -20 -21 0 -24 4 -21 28 2 15 4 33 4 40 1 19
19 14 25 -8z"/>
<path d="M4422 9330 c0 -14 2 -19 5 -12 2 6 2 18 0 25 -3 6 -5 1 -5 -13z"/>
<path d="M4926 9368 c-3 -13 -6 -38 -6 -55 l0 -33 60 0 60 0 0 55 0 55 -54 0
c-47 0 -54 -3 -60 -22z m82 -13 c3 -17 1 -17 -7 -5 -9 13 -11 13 -11 -2 0 -10
5 -18 11 -18 20 0 4 -33 -16 -35 -18 -1 -21 5 -21 42 -1 39 2 44 20 41 12 -2
22 -12 24 -23z"/>
<path d="M5110 9335 l0 -55 50 0 50 0 0 55 0 55 -50 0 -50 0 0 -55z m50 -6 c0
-10 1 -22 3 -26 1 -3 -8 -8 -20 -9 -15 -3 -23 1 -23 11 0 8 7 15 15 15 8 0 15
4 15 10 0 5 -7 7 -15 4 -11 -5 -13 -2 -9 9 8 21 34 10 34 -14z"/>
<path d="M5299 9386 c-3 -3 -3 -23 -1 -45 5 -50 35 -58 47 -13 l7 27 11 -24
c9 -19 8 -26 -8 -37 -18 -13 -17 -14 8 -14 26 0 27 2 27 55 l0 55 -43 0 c-24
0 -46 -2 -48 -4z"/>
<path d="M6417 9383 c-2 -5 -1 -30 3 -58 4 -27 8 -42 9 -32 0 10 6 15 11 12 6
-4 10 8 11 27 l1 33 8 -30 c4 -16 8 -24 9 -16 0 8 4 12 7 9 3 -4 1 -16 -6 -27
-9 -19 -8 -21 15 -21 24 0 25 3 25 55 l0 55 -44 0 c-25 0 -47 -3 -49 -7z"/>
<path d="M6610 9360 c0 -20 5 -30 15 -30 8 0 15 6 16 13 0 6 6 -4 13 -23 7
-19 20 -36 29 -38 14 -3 17 6 17 52 l0 56 -45 0 c-43 0 -45 -1 -45 -30z"/>
<path d="M6813 9383 c-7 -2 -13 -11 -13 -20 0 -10 6 -12 21 -8 20 7 21 4 17
-34 -3 -37 -1 -41 19 -41 21 0 23 4 23 55 0 54 -1 55 -27 54 -16 0 -34 -3 -40
-6z"/>
<path d="M2030 9201 c0 -5 5 -13 10 -16 6 -3 10 -2 10 4 0 5 -4 13 -10 16 -5
3 -10 2 -10 -4z"/>
<path d="M1402 9193 c-16 -3 -22 -9 -18 -20 3 -8 6 -21 6 -29 0 -8 6 -14 14
-14 16 0 29 -27 20 -41 -3 -5 6 -9 20 -9 25 0 26 2 26 60 0 65 -1 66 -68 53z"/>
<path d="M1588 9193 c-13 -3 -18 -14 -17 -41 1 -20 3 -29 6 -19 2 9 11 17 19
17 8 0 12 -4 9 -10 -3 -5 -2 -10 4 -10 5 0 9 -9 8 -20 -1 -14 -6 -18 -19 -14
-10 3 -18 1 -18 -5 0 -6 18 -11 40 -11 l40 0 0 60 c0 59 0 60 -27 59 -16 -1
-36 -3 -45 -6z m17 -23 c3 -5 -1 -10 -9 -10 -9 0 -16 5 -16 10 0 6 4 10 9 10
6 0 13 -4 16 -10z"/>
<path d="M1930 9191 c0 -5 -3 -16 -6 -25 -10 -26 12 -18 24 9 10 21 9 25 -3
25 -8 0 -15 -4 -15 -9z"/>
<path d="M5844 9191 c-6 -7 -5 -77 2 -95 4 -11 19 -16 50 -16 l44 0 0 60 0 60
-46 -2 c-25 -2 -48 -5 -50 -7z m64 -54 c3 -30 0 -37 -15 -37 -16 0 -18 6 -15
40 5 51 26 48 30 -3z"/>
<path d="M7208 9192 c-27 -3 -28 -5 -28 -63 0 -59 0 -59 29 -59 28 0 30 2 37
56 7 62 2 71 -38 66z"/>
<path d="M650 9136 l0 -54 40 -4 40 -4 0 58 0 58 -40 0 -40 0 0 -54z"/>
<path d="M870 9130 c0 -52 3 -60 19 -60 14 0 20 10 25 46 9 70 8 74 -19 74
-24 0 -25 -3 -25 -60z"/>
<path d="M1016 9163 c9 -36 13 -40 24 -23 8 12 10 10 11 -10 1 -14 1 -31 0
-37 -1 -8 9 -13 24 -13 24 0 25 3 25 55 l0 55 -45 0 c-44 0 -45 -1 -39 -27z"/>
<path d="M1160 9150 c0 -22 4 -40 10 -40 5 0 7 -7 4 -15 -4 -8 -1 -15 5 -15 6
0 11 11 11 25 0 14 -4 25 -8 25 -13 0 -10 25 5 38 10 10 13 9 14 -5 0 -11 3
-13 6 -5 2 6 11 12 19 12 12 0 16 -21 14 -67 -1 -5 -10 -7 -22 -5 -12 2 -18 0
-14 -7 4 -6 25 -11 47 -11 l39 0 0 55 0 55 -65 0 -65 0 0 -40z"/>
<path d="M2118 9130 c3 -51 7 -60 23 -60 17 0 19 8 19 60 0 56 -2 60 -22 60
-22 0 -23 -3 -20 -60z"/>
<path d="M2270 9135 c0 -52 1 -55 25 -55 24 0 25 3 25 55 0 52 -1 55 -25 55
-24 0 -25 -3 -25 -55z"/>
<path d="M2512 9133 c3 -54 5 -58 28 -58 23 0 25 4 28 58 l3 57 -31 0 -31 0 3
-57z"/>
<path d="M2648 9135 c3 -49 6 -55 26 -55 19 0 22 6 24 55 2 54 2 55 -25 55
-28 0 -28 -1 -25 -55z"/>
<path d="M3088 9135 c3 -46 7 -55 23 -55 16 0 19 8 19 55 0 50 -2 55 -22 55
-22 0 -23 -4 -20 -55z"/>
<path d="M3258 9135 l4 -55 39 0 39 0 0 55 0 55 -42 0 -43 0 3 -55z"/>
<path d="M3424 9135 l1 -55 37 0 36 0 4 55 3 55 -41 0 -41 0 1 -55z"/>
<path d="M3660 9135 c0 -52 1 -55 25 -55 24 0 25 3 25 55 0 52 -1 55 -25 55
-24 0 -25 -3 -25 -55z"/>
<path d="M3890 9135 c0 -52 1 -55 25 -55 24 0 25 3 25 55 0 52 -1 55 -25 55
-24 0 -25 -3 -25 -55z"/>
<path d="M4050 9134 l0 -55 43 3 42 3 3 53 3 52 -45 0 -46 0 0 -56z"/>
<path d="M4280 9135 c0 -52 1 -55 25 -55 24 0 25 3 25 55 0 52 -1 55 -25 55
-24 0 -25 -3 -25 -55z"/>
<path d="M4638 9135 c4 -53 5 -55 33 -55 29 0 29 1 29 55 l0 55 -32 0 -33 0 3
-55z"/>
<path d="M4910 9135 c0 -48 2 -55 20 -55 18 0 20 7 20 55 0 48 -2 55 -20 55
-18 0 -20 -7 -20 -55z"/>
<path d="M6064 9159 c3 -17 6 -42 6 -55 0 -21 5 -24 35 -24 35 0 35 0 35 45 0
25 1 48 3 53 1 4 -18 8 -42 10 l-44 3 7 -32z"/>
<path d="M6240 9135 l0 -55 40 0 40 0 0 55 0 55 -40 0 -40 0 0 -55z"/>
<path d="M6440 9135 l0 -55 35 0 35 0 0 55 0 55 -35 0 -35 0 0 -55z"/>
<path d="M6614 9163 c2 -16 5 -43 5 -60 1 -32 3 -33 41 -33 l40 0 0 60 0 60
-45 0 c-44 0 -46 -1 -41 -27z"/>
<path d="M6791 9135 l1 -55 44 0 44 0 0 55 0 55 -45 0 -44 0 0 -55z"/>
<path d="M6980 9136 l0 -53 42 -6 c23 -3 46 -3 50 -1 4 3 8 30 8 60 l0 54 -50
0 -50 0 0 -54z"/>
<path d="M7432 9133 c2 -44 7 -58 18 -58 11 0 16 14 18 58 3 52 1 57 -18 57
-19 0 -21 -5 -18 -57z"/>
<path d="M7600 9130 c0 -53 2 -60 20 -60 18 0 20 7 20 60 0 53 -2 60 -20 60
-18 0 -20 -7 -20 -60z"/>
<path d="M7760 9130 l0 -60 45 0 45 0 0 60 0 60 -45 0 -45 0 0 -60z"/>
<path d="M7940 9130 l0 -60 45 0 45 0 0 60 0 60 -45 0 -45 0 0 -60z"/>
<path d="M8124 9159 c3 -17 6 -44 6 -60 0 -28 2 -29 45 -29 l45 0 0 60 0 60
-51 0 -51 0 6 -31z"/>
<path d="M8290 9130 l0 -60 45 0 45 0 0 38 c0 20 3 47 6 60 6 21 3 22 -45 22
l-51 0 0 -60z"/>
<path d="M8460 9168 c0 -13 3 -40 6 -60 6 -34 10 -38 35 -38 29 0 29 1 29 60
l0 60 -35 0 c-30 0 -35 -3 -35 -22z"/>
<path d="M8650 9175 c0 -9 6 -12 15 -9 12 5 15 -3 15 -40 0 -39 3 -46 20 -46
18 0 20 7 20 55 l0 55 -35 0 c-24 0 -35 -5 -35 -15z"/>
<path d="M8800 9130 l0 -60 45 0 45 0 0 60 0 60 -45 0 -45 0 0 -60z"/>
<path d="M8970 9130 l0 -60 35 0 35 0 0 60 0 60 -35 0 -35 0 0 -60z"/>
<path d="M9320 9130 l0 -60 35 0 35 0 0 60 0 60 -35 0 -35 0 0 -60z"/>
<path d="M9484 9159 c3 -17 6 -44 6 -60 0 -26 3 -29 35 -29 l35 0 0 60 0 60
-41 0 c-41 0 -41 0 -35 -31z"/>
<path d="M1952 9140 c0 -14 2 -19 5 -12 2 6 2 18 0 25 -3 6 -5 1 -5 -13z"/>
<path d="M1201 9124 c0 -11 3 -14 6 -6 3 7 2 16 -1 19 -3 4 -6 -2 -5 -13z"/>
<path d="M650 8984 c0 -3 7 -12 15 -20 8 -9 15 -30 15 -49 0 -21 6 -35 16 -39
27 -10 34 3 34 60 l0 54 -40 0 c-22 0 -40 -3 -40 -6z"/>
<path d="M880 8935 c0 -42 3 -55 15 -55 12 0 15 13 15 55 0 42 -3 55 -15 55
-12 0 -15 -13 -15 -55z"/>
<path d="M1050 8936 c0 -37 4 -56 14 -59 22 -8 26 2 26 60 0 46 -2 53 -20 53
-18 0 -20 -7 -20 -54z"/>
<path d="M1240 8935 c0 -48 2 -55 20 -55 18 0 20 7 20 55 0 48 -2 55 -20 55
-18 0 -20 -7 -20 -55z"/>
<path d="M1550 8935 l0 -55 54 0 55 0 -2 55 -2 55 -52 0 -53 0 0 -55z m68 -3
c3 -27 0 -32 -17 -32 -17 0 -21 6 -21 36 0 28 3 35 18 32 11 -2 18 -14 20 -36z"/>
<path d="M1984 8968 c3 -13 6 -38 6 -55 0 -23 5 -33 15 -33 12 0 15 13 15 55
0 49 -2 55 -21 55 -17 0 -20 -4 -15 -22z"/>
<path d="M2352 8935 c3 -47 6 -55 23 -55 18 0 20 6 20 55 0 51 -2 55 -23 55
-22 0 -23 -3 -20 -55z"/>
<path d="M2544 8974 c3 -9 6 -33 6 -55 0 -32 3 -39 20 -39 18 0 20 7 20 55 0
53 -1 55 -26 55 -20 0 -25 -4 -20 -16z"/>
<path d="M2700 8935 l0 -55 40 0 40 0 0 55 0 55 -40 0 -40 0 0 -55z"/>
<path d="M2898 8935 l4 -55 34 0 34 0 0 55 0 55 -37 0 -38 0 3 -55z"/>
<path d="M3070 8935 l0 -55 40 0 40 0 0 55 0 55 -40 0 -40 0 0 -55z"/>
<path d="M3284 8968 c3 -13 6 -38 6 -55 0 -26 4 -33 20 -33 18 0 20 7 20 55 0
53 -1 55 -26 55 -22 0 -25 -3 -20 -22z"/>
<path d="M3564 8974 c3 -9 6 -33 6 -55 0 -50 25 -54 33 -5 8 48 -1 76 -25 76
-14 0 -18 -5 -14 -16z"/>
<path d="M3688 8978 c7 -7 12 -31 12 -55 0 -36 3 -43 20 -43 18 0 20 7 20 55
l0 55 -32 0 c-25 0 -29 -3 -20 -12z"/>
<path d="M4060 8976 c0 -8 5 -18 10 -21 6 -3 10 -22 10 -41 0 -30 3 -34 25
-34 24 0 25 3 25 55 l0 55 -35 0 c-24 0 -35 -5 -35 -14z"/>
<path d="M4203 8983 c-8 -3 -13 -24 -13 -54 l0 -49 36 0 c21 0 33 4 29 10 -4
6 -11 8 -16 5 -5 -4 -9 9 -9 27 0 22 7 37 20 45 23 15 28 8 31 -45 2 -33 7
-42 21 -42 15 0 18 9 18 53 l0 54 -52 1 c-29 0 -59 -2 -65 -5z"/>
<path d="M4430 8981 l-55 -6 -1 -50 c-1 -38 0 -41 3 -12 4 38 5 39 24 21 18
-16 19 -16 13 -1 -4 13 -1 17 15 17 16 0 21 -6 21 -25 0 -14 -7 -28 -16 -32
-24 -9 2 -20 36 -15 29 4 30 6 30 58 0 30 -3 53 -7 52 -5 -1 -33 -4 -63 -7z"/>
<path d="M4560 8933 c0 -52 0 -53 30 -53 28 0 30 2 30 40 0 23 5 40 11 40 7 0
10 -15 7 -40 -3 -36 -1 -40 20 -40 22 0 23 3 20 53 l-3 52 -57 0 -58 0 0 -52z
m30 -13 c0 -5 -4 -10 -10 -10 -5 0 -10 5 -10 10 0 6 5 10 10 10 6 0 10 -4 10
-10z"/>
<path d="M4841 8938 c-1 -43 1 -49 13 -39 17 14 17 78 1 85 -8 3 -13 -13 -14
-46z"/>
<path d="M4964 8965 c-3 -14 -4 -32 0 -40 8 -21 28 -19 24 3 -3 20 9 42 23 42
6 0 7 -4 4 -10 -3 -5 -1 -10 6 -10 7 0 10 -13 7 -35 -4 -37 10 -47 32 -20 8 9
10 28 5 55 -7 40 -7 40 -51 40 -38 0 -44 -3 -50 -25z"/>
<path d="M5285 8930 c0 -48 3 -60 15 -58 31 6 33 118 1 118 -13 0 -16 -11 -16
-60z"/>
<path d="M5870 8935 l0 -55 40 0 40 0 0 55 0 55 -40 0 -40 0 0 -55z"/>
<path d="M6280 8935 c0 -48 2 -55 20 -55 18 0 20 7 20 55 0 48 -2 55 -20 55
-18 0 -20 -7 -20 -55z"/>
<path d="M6470 8935 c0 -52 1 -55 25 -55 24 0 25 3 25 55 0 52 -1 55 -25 55
-24 0 -25 -3 -25 -55z"/>
<path d="M6864 8959 c3 -17 6 -42 6 -54 0 -18 7 -25 32 -30 21 -5 33 -4 36 4
2 6 8 9 13 5 5 -3 9 13 9 35 0 21 3 46 6 55 5 13 -3 16 -51 16 l-57 0 6 -31z
m70 -5 c10 -26 7 -54 -6 -54 -28 0 -44 29 -34 56 7 19 33 18 40 -2z"/>
<path d="M7264 8959 c3 -17 6 -44 6 -59 0 -21 4 -26 23 -25 20 1 22 8 25 58
l3 57 -32 0 c-30 0 -31 -1 -25 -31z"/>
<path d="M7464 8968 c3 -13 6 -38 6 -55 0 -28 3 -33 25 -33 24 0 25 3 25 55 0
55 0 55 -31 55 -28 0 -31 -3 -25 -22z"/>
<path d="M8620 8960 c0 -45 20 -80 46 -80 12 0 29 -3 38 -6 14 -5 16 3 16 55
l0 61 -50 0 c-49 0 -50 -1 -50 -30z m60 -25 c0 -27 -4 -35 -18 -35 -15 0 -17
6 -14 35 3 21 10 35 18 35 9 0 14 -12 14 -35z"/>
<path d="M4730 8929 c0 -43 3 -50 16 -45 9 3 21 6 27 7 7 0 3 4 -8 9 -14 6
-15 9 -5 9 9 1 16 11 17 23 1 13 10 28 19 35 16 11 12 13 -24 13 l-42 0 0 -51z"/>
<path d="M4820 8946 c0 -20 2 -36 4 -36 8 0 12 61 4 66 -4 3 -8 -11 -8 -30z"/>
<path d="M4790 8890 c0 -5 5 -10 11 -10 5 0 7 5 4 10 -3 6 -8 10 -11 10 -2 0
-4 -4 -4 -10z"/>
<path d="M4985 8890 c3 -5 11 -10 16 -10 6 0 7 5 4 10 -3 6 -11 10 -16 10 -6
0 -7 -4 -4 -10z"/>
<path d="M662 8783 c-13 -3 -21 -10 -19 -16 2 -7 11 -11 21 -9 13 2 16 -6 16
-43 0 -41 2 -45 25 -45 24 0 25 3 25 60 0 65 -1 66 -68 53z"/>
<path d="M878 8783 c-27 -4 -28 -7 -28 -59 l0 -54 35 0 35 0 0 60 c0 33 -3 59
-7 59 -5 -1 -20 -4 -35 -6z"/>
<path d="M1438 8783 l-38 -4 0 -55 0 -55 43 3 42 3 3 58 c2 31 -1 56 -5 55 -4
-1 -25 -3 -45 -5z"/>
<path d="M1556 8783 c-3 -4 -6 -30 -6 -60 0 -48 2 -53 23 -53 20 0 22 4 19 54
-3 50 -19 76 -36 59z"/>
<path d="M1800 8782 c-23 -3 -25 -7 -24 -55 1 -51 2 -52 33 -55 l31 -3 0 55
c0 60 -3 63 -40 58z"/>
<path d="M1955 8779 c-4 -6 0 -16 9 -22 9 -7 17 -29 18 -49 3 -32 7 -38 26
-38 20 0 22 4 22 60 l0 60 -34 0 c-19 0 -38 -5 -41 -11z"/>
<path d="M2305 8780 c-3 -5 -2 -10 4 -10 5 0 13 5 16 10 3 6 2 10 -4 10 -5 0
-13 -4 -16 -10z"/>
<path d="M2345 8780 c-7 -12 12 -12 40 0 18 8 17 9 -7 9 -15 1 -30 -3 -33 -9z"/>
<path d="M2687 8783 c-17 -3 -25 -9 -20 -16 4 -6 6 -28 4 -49 -1 -23 2 -38 9
-38 6 0 10 16 8 40 -2 44 4 55 27 46 12 -4 15 -14 10 -43 -5 -28 -4 -34 4 -23
9 12 11 11 11 -7 0 -16 5 -20 20 -16 17 5 20 14 20 59 l0 54 -32 -1 c-18 -1
-45 -4 -61 -6z"/>
<path d="M2908 8783 c-21 -3 -28 -10 -28 -26 0 -18 2 -19 10 -7 14 22 25 4 25
-41 0 -34 2 -39 23 -39 22 0 23 3 20 57 -3 59 -6 62 -50 56z"/>
<path d="M3072 8733 c4 -57 5 -58 36 -61 l32 -3 0 60 0 61 -36 0 -36 0 4 -57z"/>
<path d="M3697 8783 c-16 -3 -26 -10 -24 -16 2 -7 12 -11 22 -9 15 3 17 -3 13
-42 -3 -44 -2 -46 23 -46 24 0 27 4 33 50 10 71 7 74 -67 63z"/>
<path d="M3896 8781 c-3 -4 -3 -32 1 -60 6 -51 6 -52 37 -49 30 3 31 4 34 61
l3 57 -35 0 c-19 0 -37 -4 -40 -9z"/>
<path d="M4090 8729 c0 -59 0 -59 30 -59 30 0 30 0 30 58 0 59 0 59 -30 60
l-30 1 0 -60z"/>
<path d="M5020 8730 c0 -53 2 -60 20 -60 18 0 20 7 20 60 0 53 -2 60 -20 60
-18 0 -20 -7 -20 -60z"/>
<path d="M1080 8725 c0 -48 2 -55 20 -55 18 0 20 7 20 55 0 48 -2 55 -20 55
-18 0 -20 -7 -20 -55z"/>
<path d="M1190 8725 l0 -55 45 0 c36 0 45 3 45 18 0 9 3 34 6 55 l7 37 -52 0
-51 0 0 -55z"/>
<path d="M2110 8738 c0 -39 1 -40 15 -22 8 10 15 14 15 7 0 -6 -7 -18 -15 -26
-13 -14 -10 -16 26 -22 22 -4 43 -4 46 -1 4 3 -3 6 -15 6 -19 0 -22 6 -22 40
0 33 3 40 20 40 14 0 20 -7 20 -22 0 -13 3 -33 6 -45 10 -36 30 -5 30 45 l0
42 -63 0 -63 0 0 -42z"/>
<path d="M2530 8756 c5 -13 7 -38 5 -55 -3 -22 0 -31 10 -31 11 0 15 14 15 55
0 48 -2 55 -20 55 -16 0 -18 -4 -10 -24z"/>
<path d="M3038 8773 c7 -3 16 -2 19 1 4 3 -2 6 -13 5 -11 0 -14 -3 -6 -6z"/>
<path d="M3220 8725 l0 -55 65 0 65 0 0 55 0 55 -65 0 -65 0 0 -55z m90 26 c0
-5 3 -23 6 -40 6 -28 4 -31 -19 -31 -21 0 -25 5 -29 35 -3 25 0 35 12 39 26 7
30 6 30 -3z"/>
<path d="M3400 8729 c0 -57 16 -65 26 -13 6 31 31 54 60 54 2 0 4 -22 4 -50 0
-27 5 -50 10 -50 6 0 10 25 10 55 l0 55 -55 -1 -55 -2 0 -48z"/>
<path d="M3562 8729 c-1 -65 22 -62 26 4 2 36 0 47 -11 47 -11 0 -15 -13 -15
-51z"/>
<path d="M2301 8734 c-1 -21 4 -31 14 -31 9 0 11 4 6 11 -5 6 -11 20 -14 31
-3 14 -5 10 -6 -11z"/>
<path d="M9615 8639 c-4 -5 -4 -37 0 -70 6 -52 10 -59 29 -59 21 0 22 5 24 70
2 68 1 70 -22 70 -14 0 -28 -5 -31 -11z"/>
<path d="M6733 8633 c-22 -4 -34 -43 -14 -43 13 0 19 -69 6 -74 -5 -2 4 -5 21
-5 30 -1 31 0 29 42 -4 80 -5 87 -12 86 -5 -1 -18 -4 -30 -6z m27 -39 c0 -8
-4 -14 -10 -14 -5 0 -10 9 -10 21 0 11 5 17 10 14 6 -3 10 -13 10 -21z m-3
-56 c-3 -7 -5 -2 -5 12 0 14 2 19 5 13 2 -7 2 -19 0 -25z"/>
<path d="M7278 8633 c-24 -4 -28 -9 -28 -38 0 -26 3 -33 15 -29 11 5 15 -1 15
-25 0 -24 4 -31 20 -31 18 0 20 7 20 65 0 36 -3 64 -7 64 -5 -1 -20 -4 -35 -6z"/>
<path d="M6470 8571 c0 -50 3 -59 20 -64 18 -5 20 0 20 59 0 57 -2 64 -20 64
-18 0 -20 -7 -20 -59z"/>
<path d="M7020 8575 c0 -48 2 -55 20 -55 17 0 20 7 21 53 1 28 3 41 6 27 14
-93 12 -90 43 -90 l29 0 -2 60 -2 60 -57 0 -58 0 0 -55z"/>
<path d="M7457 8618 c9 -15 12 -29 15 -75 2 -24 8 -33 21 -33 14 0 17 9 17 44
0 24 3 51 6 60 5 13 -1 16 -31 16 -26 0 -34 -3 -28 -12z"/>
<path d="M7654 8614 c3 -9 6 -29 6 -45 0 -20 5 -29 16 -29 8 0 12 -4 9 -10 -3
-5 3 -10 14 -10 10 0 26 -3 35 -6 14 -5 16 3 16 55 l0 61 -51 0 c-43 0 -50 -3
-45 -16z"/>
<path d="M7860 8616 c0 -8 5 -16 11 -18 6 -2 11 -23 12 -46 2 -39 4 -42 30
-42 26 0 27 1 27 60 l0 60 -40 0 c-28 0 -40 -4 -40 -14z"/>
<path d="M8058 8593 c3 -21 11 -41 18 -46 7 -4 10 -14 7 -23 -5 -12 1 -15 28
-12 34 3 34 3 37 61 l3 57 -48 0 -49 0 4 -37z"/>
<path d="M8261 8588 l2 -43 7 35 c7 33 7 31 9 -17 1 -51 2 -53 29 -51 35 3 42
13 42 71 l0 47 -45 0 -45 0 1 -42z"/>
<path d="M8420 8575 c0 -55 0 -55 31 -55 28 0 31 2 25 24 -3 13 -2 35 3 48 8
19 10 13 10 -29 1 -50 3 -53 26 -53 24 0 25 3 25 60 l0 60 -60 0 -60 0 0 -55z"/>
<path d="M8600 8575 c0 -52 1 -55 25 -55 23 0 25 4 25 45 0 25 5 45 10 45 6 0
10 -23 10 -51 0 -49 1 -50 28 -47 26 3 27 6 30 61 l3 57 -66 0 -65 0 0 -55z"/>
<path d="M8790 8575 c0 -48 2 -55 20 -55 17 0 20 7 21 48 l1 47 10 -52 c8 -47
12 -53 34 -53 23 0 24 3 24 60 l0 60 -55 0 -55 0 0 -55z"/>
<path d="M8988 8580 c2 -27 7 -50 10 -50 16 1 30 17 35 40 3 16 5 10 6 -17 1
-35 5 -43 20 -43 16 0 20 9 23 60 l3 60 -50 0 -50 0 3 -50z"/>
<path d="M9160 8576 l0 -54 70 -4 70 -3 0 58 0 57 -70 0 -70 0 0 -54z m80 -18
c0 -16 -4 -28 -10 -28 -5 0 -10 19 -10 43 0 31 3 38 10 27 5 -8 10 -27 10 -42z"/>
<path d="M9382 8573 l3 -57 58 -4 57 -4 0 61 0 61 -60 0 -61 0 3 -57z m68 15
c0 -7 3 -23 6 -35 5 -17 2 -23 -10 -23 -12 0 -16 9 -16 35 0 19 5 35 10 35 6
0 10 -6 10 -12z"/>
<path d="M6840 8579 c0 -51 19 -68 78 -69 l42 0 0 55 0 55 -60 0 -60 0 0 -41z
m82 4 c3 -16 7 -35 9 -43 3 -11 -5 -16 -28 -18 -37 -4 -37 -3 -23 32 7 19 6
26 -3 26 -12 1 21 30 34 30 4 0 9 -12 11 -27z"/>
<path d="M4998 8519 c3 -46 0 -74 -8 -84 -9 -10 -9 -15 -1 -15 6 0 11 5 11 10
0 6 9 10 20 10 18 0 20 7 20 63 0 57 -3 65 -23 74 -22 10 -22 10 -19 -58z"/>
<path d="M658 8573 c-22 -5 -24 -23 -3 -23 16 0 18 -12 15 -67 -1 -29 1 -33
24 -33 25 0 26 2 26 65 0 69 -4 73 -62 58z"/>
<path d="M3263 8573 l-43 -4 0 -55 c0 -41 4 -54 15 -54 8 0 15 7 15 16 0 8 5
12 10 9 6 -4 10 8 10 29 0 29 4 36 20 36 16 0 20 -7 21 -37 1 -21 1 -44 0 -50
-2 -15 15 -17 24 -3 12 20 8 102 -6 111 -8 5 -16 8 -19 7 -3 -1 -24 -3 -47 -5z"/>
<path d="M3467 8573 c-13 -12 -7 -100 6 -112 20 -16 22 -9 19 58 -4 57 -9 70
-25 54z"/>
<path d="M841 8523 c4 -27 8 -54 8 -61 1 -9 11 -12 29 -10 26 3 27 6 30 61 l3
57 -39 0 -39 0 8 -47z"/>
<path d="M999 8560 c-5 -25 5 -97 14 -102 23 -14 32 -1 29 40 -2 26 1 42 7 42
6 0 11 -19 11 -45 0 -41 2 -45 24 -45 21 0 24 6 30 50 4 28 4 55 1 60 -6 9
-114 9 -116 0z"/>
<path d="M1180 8515 c0 -58 4 -63 34 -40 19 14 16 45 -4 45 -5 0 -10 5 -10 10
0 6 9 10 20 10 17 0 20 -7 20 -46 0 -44 1 -45 28 -42 26 3 27 6 30 61 l3 57
-61 0 -60 0 0 -55z"/>
<path d="M1360 8515 c0 -35 4 -54 10 -50 6 4 8 11 4 16 -3 5 -2 9 3 8 24 -4
33 4 33 31 0 20 5 30 15 30 11 0 15 -11 15 -40 0 -31 -3 -38 -15 -34 -8 4 -15
1 -15 -5 0 -14 15 -14 38 0 13 8 17 20 14 40 -2 16 0 35 6 42 8 10 -2 13 -49
15 l-59 3 0 -56z m26 19 c-4 -9 -9 -15 -11 -12 -3 3 -3 13 1 22 4 9 9 15 11
12 3 -3 3 -13 -1 -22z"/>
<path d="M1540 8513 c0 -50 1 -53 25 -51 20 2 25 8 25 28 0 14 -5 31 -12 38
-9 9 -4 12 23 11 18 0 28 -3 22 -6 -7 -2 -13 -20 -13 -39 0 -30 3 -34 25 -34
24 0 25 3 25 55 l0 55 -60 -2 -60 -3 0 -52z"/>
<path d="M1740 8513 c0 -40 4 -53 15 -53 8 0 14 3 14 8 -1 4 0 23 1 42 l2 35
9 -30 c5 -16 7 -36 4 -42 -2 -7 2 -13 9 -13 8 0 21 -3 30 -6 14 -5 16 3 16 55
l0 61 -50 -1 -50 -2 0 -54z"/>
<path d="M1920 8515 c0 -57 -1 -56 47 -55 4 0 6 19 5 43 -2 31 0 38 7 27 6 -8
11 -30 11 -47 0 -26 4 -33 20 -33 18 0 20 7 20 60 l0 60 -55 0 -55 0 0 -55z"/>
<path d="M2530 8559 c0 -6 9 -9 19 -6 15 4 22 -2 30 -24 13 -39 21 -37 21 6 0
33 -2 35 -35 35 -19 0 -35 -5 -35 -11z"/>
<path d="M2867 8563 c-2 -5 -1 -19 4 -33 4 -16 7 -19 8 -7 2 38 21 14 21 -28
0 -43 1 -45 30 -45 l30 0 0 60 0 60 -44 0 c-25 0 -47 -3 -49 -7z"/>
<path d="M3060 8551 c0 -11 7 -27 16 -35 9 -10 13 -24 9 -36 -4 -13 -2 -20 7
-20 7 0 23 -3 36 -6 21 -6 22 -4 22 55 l0 61 -45 0 c-38 0 -45 -3 -45 -19z"/>
<path d="M3800 8556 c0 -54 14 -106 29 -106 13 0 16 11 16 60 0 56 -2 60 -22
60 -13 0 -23 -6 -23 -14z"/>
<path d="M4255 8560 c-8 -13 5 -13 25 0 13 8 13 10 -2 10 -9 0 -20 -4 -23 -10z"/>
<path d="M4420 8536 c0 -37 17 -57 30 -36 5 8 9 7 14 -5 9 -24 8 -25 -11 -26
-12 -1 -10 -4 7 -9 46 -15 48 -12 52 50 l3 60 -47 0 c-48 0 -48 0 -48 -34z"/>
<path d="M4590 8513 c0 -41 3 -53 16 -53 9 0 12 5 8 13 -4 6 2 4 13 -6 14 -12
29 -15 52 -11 31 7 32 7 29 58 l-3 51 -57 0 -58 1 0 -53z m88 -5 c1 -39 -4
-49 -23 -41 -9 3 -15 18 -15 39 0 26 4 34 18 34 14 0 19 -8 20 -32z"/>
<path d="M4764 8561 c-8 -8 -4 -80 5 -85 5 -4 7 4 3 16 -4 18 -2 20 17 15 19
-5 22 -2 18 14 -4 16 0 19 30 19 25 0 32 -3 26 -12 -4 -7 -6 -23 -4 -35 2 -20
-2 -23 -30 -23 -46 0 -29 -12 20 -14 l41 -2 0 59 0 58 -61 -3 c-33 -1 -62 -5
-65 -7z m21 -31 c3 -5 1 -10 -4 -10 -6 0 -11 5 -11 10 0 6 2 10 4 10 3 0 8 -4
11 -10z"/>
<path d="M2282 8540 c0 -14 2 -19 5 -12 2 6 2 18 0 25 -3 6 -5 1 -5 -13z"/>
<path d="M2330 8548 c0 -7 4 -19 9 -26 6 -10 10 -7 13 12 4 18 1 26 -8 26 -8
0 -14 -6 -14 -12z"/>
<path d="M1481 8534 c0 -11 3 -14 6 -6 3 7 2 16 -1 19 -3 4 -6 -2 -5 -13z"/>
<path d="M2431 8524 c0 -11 3 -14 6 -6 3 7 2 16 -1 19 -3 4 -6 -2 -5 -13z"/>
<path d="M2751 8524 c0 -11 3 -14 6 -6 3 7 2 16 -1 19 -3 4 -6 -2 -5 -13z"/>
<path d="M5595 8528 c-2 -7 -6 -31 -7 -53 -3 -39 -4 -40 -45 -43 l-42 -3 -3
-91 -3 -92 -40 0 -40 -1 -3 -97 -3 -98 -44 0 -45 0 0 95 0 95 -110 0 c-107 0
-110 -1 -110 -22 0 -58 -9 -68 -61 -68 l-48 0 -3 -47 -3 -48 -117 -3 -118 -3
0 -54 0 -55 -110 0 -110 0 0 -50 0 -50 -80 0 c-76 0 -80 -1 -80 -22 0 -57 -10
-68 -56 -68 -43 0 -44 0 -50 -41 l-7 -41 -43 4 c-42 3 -44 2 -44 -24 0 -50 -9
-58 -61 -58 l-49 0 0 -50 c0 -49 0 -50 -32 -52 -18 0 -41 -1 -50 0 -16 2 -18
-10 -18 -127 l0 -129 -142 -6 c-261 -12 -602 -26 -655 -26 l-53 0 0 -70 0 -70
-70 0 -70 0 0 -312 c0 -335 4 -392 26 -384 8 3 15 0 16 -7 0 -7 2 -16 3 -22 2
-5 3 -38 4 -72 l1 -63 45 0 45 0 0 -53 0 -53 73 0 72 1 3 -51 3 -52 64 -7 65
-7 0 -74 0 -74 -40 0 -40 0 0 -315 0 -315 65 0 65 0 0 40 0 40 150 0 150 0 0
40 0 40 60 0 60 0 0 30 0 30 101 0 c92 0 101 2 106 20 5 19 14 20 139 20 74 0
137 1 142 3 4 1 8 -43 10 -98 l3 -100 -51 3 -50 4 0 -111 0 -111 -27 -1 c-16
-1 -35 -2 -43 -3 -13 -1 -15 -55 -15 -421 l0 -420 48 -3 47 -3 0 -170 0 -169
114 0 113 0 7 -46 c3 -26 6 -98 6 -160 l0 -114 55 0 55 0 0 -60 0 -59 68 -3
67 -3 3 -53 3 -52 55 0 c52 0 54 -1 54 -27 0 -63 9 -73 60 -73 l48 0 6 -45 c4
-25 7 -82 6 -128 -1 -45 -1 -99 -1 -119 l1 -38 74 0 74 0 4 -107 c2 -74 7
-108 16 -111 7 -2 12 -23 12 -58 l0 -54 -94 0 -95 0 -3 -48 -3 -47 -101 -3
-102 -3 -7 -44 -6 -45 -55 0 -54 0 0 -50 0 -50 -80 0 -80 0 0 39 c0 35 -3 39
-31 45 -17 3 -47 6 -65 6 -34 0 -34 1 -34 45 l0 45 -95 0 c-102 0 -130 10
-198 74 -28 26 -30 26 -176 26 -135 0 -148 -2 -148 -17 0 -84 0 -83 -48 -83
l-45 0 0 -64 0 -65 -42 -3 c-40 -3 -43 -5 -46 -33 -9 -113 -10 -114 -55 -117
-33 -2 -42 -7 -42 -21 0 -34 -42 -57 -101 -57 -57 0 -65 -5 -38 -25 14 -10 7
-15 -44 -38 l-60 -27 -79 25 c-94 30 -116 31 -111 8 2 -12 23 -25 58 -36 78
-26 81 -33 25 -58 -53 -24 -85 -22 -194 11 -84 26 -94 26 -89 -5 5 -22 0 -26
-47 -40 -29 -8 -87 -15 -129 -15 l-76 0 0 -155 0 -154 63 -3 62 -3 -3 -32 c-3
-32 -2 -33 36 -33 21 0 67 -3 100 -6 57 -6 61 -8 56 -29 -7 -29 14 -35 123
-35 l83 0 -6 -30 -6 -29 98 -3 99 -3 0 -35 1 -35 149 -5 150 -5 -3 -32 -4 -33
59 -1 c32 -1 85 -4 118 -8 57 -6 60 -7 57 -32 -3 -33 14 -39 121 -39 l77 0 0
-30 0 -30 136 0 135 0 -3 -33 -3 -32 -115 -5 -115 -5 2 -37 3 -38 -275 0 -274
0 -3 -37 -3 -38 -65 -6 c-36 -4 -219 -7 -407 -8 l-343 -1 0 -35 0 -35 413 2
412 3 5 40 5 40 267 3 267 2 3 33 c3 30 5 32 48 35 26 2 48 10 53 18 6 10 30
14 92 14 66 0 85 3 85 14 0 19 22 26 85 26 51 0 54 -1 57 -27 3 -28 4 -28 86
-31 l82 -3 0 -33 c0 -31 3 -34 38 -40 20 -3 67 -6 105 -6 l67 0 0 -35 0 -35
185 0 185 0 0 35 0 34 88 3 87 3 3 31 3 32 97 8 c96 9 97 9 100 37 l3 27 90 0
89 0 0 30 c0 30 0 30 59 30 71 0 67 -12 63 192 l-3 136 -41 7 c-23 4 -48 14
-56 21 -7 8 -25 14 -38 14 -24 0 -25 2 -22 58 l3 57 81 3 82 3 6 -55 7 -55 42
-3 42 -3 -2 -42 -2 -42 49 -7 c43 -6 49 -9 54 -36 3 -17 6 -61 6 -99 l0 -69
45 0 c43 0 45 1 45 30 0 29 2 30 45 30 l45 0 -2 188 -3 187 -58 3 -58 3 3 47
c3 43 5 47 31 50 26 3 27 6 27 58 l0 54 55 0 55 0 0 50 0 50 93 0 c128 0 137
4 137 51 l0 39 85 0 85 0 0 39 0 40 48 3 c33 2 47 7 48 18 1 8 2 29 2 46 2 31
2 31 47 26 l45 -5 0 52 0 51 60 0 60 0 0 110 0 110 44 0 44 0 7 -50 7 -50 43
0 44 0 3 -62 3 -63 48 -3 c44 -3 47 -5 47 -30 0 -40 11 -50 55 -54 l40 -4 3
-86 3 -86 44 -7 45 -6 0 -75 0 -74 40 0 c38 0 40 -2 40 -30 0 -29 2 -30 45
-30 l44 0 3 -87 3 -88 58 -3 58 -3 -1 -72 c-3 -135 -6 -126 41 -120 46 7 59
-4 59 -49 0 -24 4 -27 43 -30 38 -3 43 -6 52 -36 l9 -33 61 3 60 3 3 52 3 53
45 0 44 0 0 -40 c0 -40 0 -40 39 -40 47 0 51 -8 51 -96 l0 -64 45 7 45 6 0
-37 0 -36 130 0 130 0 0 185 c0 178 1 185 20 185 18 0 20 -7 20 -80 l0 -80 55
0 55 0 0 -34 c0 -18 3 -47 6 -63 6 -29 7 -29 60 -25 l54 4 0 -46 0 -46 145 0
145 0 0 200 0 200 -45 0 -45 0 0 65 0 65 -45 0 c-44 0 -45 1 -45 33 0 24 -11
44 -47 82 -25 27 -49 63 -53 79 -5 25 -13 33 -45 42 -22 6 -40 17 -41 25 -1
32 -60 118 -89 131 -25 11 -31 20 -33 51 l-3 37 80 0 80 0 3 -37 3 -38 90 -5
c81 -5 90 -7 90 -25 0 -21 42 -33 123 -34 35 -1 42 -4 42 -21 0 -19 7 -20 230
-20 l230 0 0 90 0 90 -45 0 -45 0 0 45 c0 45 0 45 -35 45 -34 0 -35 1 -35 41
l0 42 -45 -5 -45 -6 0 34 0 34 -49 0 -50 0 -3 38 -3 37 -102 3 -103 3 0 39 0
40 -62 1 c-35 1 -68 1 -75 0 -7 -1 -14 21 -18 54 l-7 55 -99 0 -99 0 0 45 0
45 274 0 c305 0 286 -5 286 71 l0 40 110 -3 110 -3 0 47 c0 43 -2 47 -27 50
-21 2 -29 10 -37 36 -6 22 -15 33 -30 34 -12 1 -28 2 -36 4 -8 1 -36 2 -62 3
l-48 1 0 40 0 40 -54 0 -53 0 -7 40 -6 40 -54 0 c-29 0 -68 3 -85 6 -28 6 -31
10 -31 45 l0 39 -44 0 c-43 0 -44 0 -50 40 l-6 40 -54 0 -53 0 -7 40 -6 41
-50 -7 -50 -7 0 42 0 41 -80 0 -80 0 0 34 c0 34 1 35 43 38 l42 3 3 188 2 187
-50 0 c-44 0 -50 3 -56 24 -3 13 -5 30 -4 37 6 43 1 49 -45 49 l-45 0 0 105
c0 77 -3 105 -12 106 -7 1 -30 0 -50 -1 l-38 -2 0 56 0 56 -55 0 -55 0 0 110
0 110 -50 0 -50 0 0 50 0 50 -50 0 -50 0 0 50 0 50 -45 0 -45 0 0 61 0 62 -45
-6 -45 -7 0 60 0 60 -55 0 -55 0 0 55 0 55 -55 0 -55 0 0 105 0 105 -50 0 -50
0 0 45 0 45 -55 0 -55 0 0 50 0 50 -60 0 -59 0 6 60 5 60 -91 0 -91 0 0 55 0
55 -50 0 -49 0 -3 108 -3 107 -57 3 -58 3 0 54 0 55 -54 0 -53 0 1 48 1 47 50
5 50 5 3 273 2 272 110 0 110 0 0 55 0 55 -50 0 -50 0 0 245 0 244 -57 3 -58
3 -3 64 -3 63 -250 -7 -249 -8 0 52 0 51 -40 0 -40 0 0 44 c0 53 6 56 101 56
l69 0 0 65 0 65 -195 0 -195 0 0 55 0 55 45 0 45 0 0 50 0 50 45 0 45 0 0 160
0 160 -155 0 -155 0 0 -45 0 -45 -45 0 -45 0 0 -50 0 -50 -45 0 -45 0 0 245 0
245 -110 0 c-80 0 -112 -4 -115 -12z m665 -1333 l0 -65 75 0 75 0 0 58 0 59
152 6 c83 4 200 7 260 7 l109 0 -3 -62 -3 -63 -57 -3 -58 -3 0 -63 0 -63 -195
-6 c-107 -3 -200 -9 -205 -12 -6 -4 -10 -136 -10 -361 l0 -354 -75 0 -75 0 0
-69 0 -69 -187 -6 c-104 -4 -305 -11 -448 -16 -143 -6 -338 -10 -432 -10
l-173 0 0 60 0 60 -70 0 -70 0 0 316 0 317 -97 -7 c-54 -3 -137 -9 -185 -12
l-88 -7 0 -77 0 -77 -97 -6 c-54 -4 -117 -7 -140 -7 l-43 0 0 150 0 151 -72
-6 c-40 -3 -174 -10 -298 -16 -124 -6 -274 -14 -335 -18 l-110 -6 -3 -67 -3
-67 68 -3 68 -3 0 -272 0 -273 38 0 c22 0 37 -5 38 -12 2 -20 2 -50 1 -85 l-2
-33 -175 0 -175 0 0 61 0 60 -70 -6 -70 -7 -2 401 c-1 221 -2 411 -2 424 -1
21 3 22 129 29 72 3 218 11 325 18 461 26 751 40 838 40 l92 0 0 -71 c0 -62 2
-70 18 -65 9 3 92 8 185 12 l167 7 0 86 0 87 358 23 c758 48 929 59 980 60
l52 1 0 -65z m-2260 -540 l0 -125 -80 0 -80 0 0 118 c0 65 3 122 7 125 3 4 39
7 80 7 l73 0 0 -125z m2930 60 l0 -45 -60 0 -60 0 0 45 0 45 60 0 60 0 0 -45z
m-2280 -225 l0 -50 55 0 55 0 0 -147 c0 -196 -1 -193 66 -193 l53 0 3 -47 3
-48 63 -3 62 -3 0 -44 0 -45 -99 0 c-54 0 -111 -3 -127 -6 -28 -5 -29 -7 -26
-55 l4 -49 124 0 124 0 0 -50 0 -49 -62 -3 -63 -3 -3 -42 -3 -43 -397 -1
c-426 -2 -504 -3 -654 -6 l-97 -3 -3 -57 -3 -58 -107 -3 -108 -3 0 116 0 115
50 0 50 0 0 95 0 95 49 0 c58 0 61 6 61 120 l0 75 49 -3 50 -4 3 49 3 48 47 0
47 0 6 43 6 42 54 0 54 0 3 43 3 42 57 -1 57 -1 3 46 3 46 98 0 97 0 0 48 0
47 145 0 145 0 0 -50z m1270 -3785 l0 -54 93 -3 92 -3 3 -42 3 -43 50 0 49 0
1 -52 c0 -29 0 -77 -1 -105 l-1 -53 105 0 c123 0 119 5 114 -120 l-3 -75 -102
-3 -103 -3 0 -29 c0 -51 -9 -60 -56 -60 l-44 0 0 -40 c0 -42 -3 -44 -72 -43
-18 0 -21 -11 -22 -82 l-1 -30 -77 -3 -78 -3 0 41 0 40 -90 0 -90 0 0 40 0 40
-114 0 c-122 0 -126 2 -126 56 0 24 -1 24 -99 24 l-100 0 -3 -37 c-3 -36 -5
-38 -40 -41 -42 -4 -54 -26 -46 -81 4 -26 1 -30 -25 -35 -16 -3 -47 -6 -68 -6
l-39 0 0 -111 c0 -85 -3 -110 -12 -107 -7 3 -67 20 -133 38 -152 41 -168 48
-161 75 3 11 6 75 6 143 l0 122 90 0 90 0 0 75 0 75 84 0 85 0 3 43 3 42 113
-4 112 -3 0 46 0 46 90 0 90 0 0 40 0 40 95 0 95 0 0 45 0 45 39 0 40 0 3 48
3 47 46 3 47 3 7 55 c6 49 9 54 31 54 22 0 24 -3 24 -55z m343 -252 c-7 -2
-19 -2 -25 0 -7 3 -2 5 12 5 14 0 19 -2 13 -5z m-2385 -356 c2 -37 0 -47 -12
-47 -12 0 -16 12 -16 51 0 66 24 62 28 -4z m-248 -64 c0 -29 -3 -33 -25 -33
-39 0 -145 34 -145 46 0 6 14 17 31 25 25 12 43 13 85 5 53 -9 54 -10 54 -43z
m740 -59 c0 -65 -3 -85 -12 -82 -7 3 -59 18 -115 33 -81 22 -103 32 -103 46 0
15 10 19 53 21 51 3 52 4 55 36 l3 32 60 0 59 0 0 -86z m-900 20 c46 -9 45
-21 -6 -45 -43 -19 -52 -20 -106 -9 -32 7 -58 18 -58 24 0 6 19 19 43 28 40
15 59 15 127 2z m462 -23 c21 -8 24 -14 20 -46 l-4 -37 -45 7 c-57 8 -123 36
-103 43 8 3 21 13 28 24 14 20 64 24 104 9z m-312 -71 c0 -34 -3 -40 -21 -40
-28 0 -112 21 -123 31 -13 11 71 47 112 48 31 1 32 0 32 -39z m-295 6 l30 -13
-42 -21 c-23 -12 -54 -22 -70 -22 -43 -1 -108 14 -108 25 0 6 21 20 45 32 47
24 85 23 145 -1z m774 4 c20 -5 49 -12 64 -15 15 -3 25 -10 22 -15 -11 -17
-83 -50 -110 -50 -23 0 -25 3 -25 45 0 25 3 45 6 45 4 0 23 -4 43 -10z m-1158
-25 c77 -27 77 -26 34 -45 -22 -10 -50 -19 -63 -19 -32 -1 -112 20 -112 29 0
11 61 48 81 49 9 1 36 -6 60 -14z m854 -11 c33 -8 64 -19 68 -23 10 -10 -52
-41 -81 -41 -12 0 -24 -4 -27 -10 -3 -5 -13 -10 -21 -10 -10 0 -14 13 -14 50
0 28 4 50 8 50 4 0 35 -7 67 -16z m-297 -30 c34 -10 27 -23 -25 -46 -43 -19
-52 -20 -98 -8 -72 18 -73 21 -24 46 43 22 88 25 147 8z m822 -14 l45 -18 -47
-22 c-44 -19 -53 -20 -108 -8 -33 6 -59 16 -57 22 5 15 70 46 97 45 14 0 45
-8 70 -19z m-1187 -3 c54 -19 66 -34 33 -43 -14 -3 -26 -11 -26 -16 0 -7 -22
-8 -62 -4 -35 4 -71 8 -80 9 -22 2 -6 22 37 49 36 21 48 22 98 5z m842 -17 c3
-5 17 -10 30 -10 29 0 55 -10 55 -20 0 -14 -98 -42 -122 -35 -65 18 -79 27
-66 42 24 29 90 43 103 23z m-339 -14 c3 -7 23 -19 45 -26 22 -8 42 -17 44
-21 3 -3 -16 -12 -41 -19 -37 -11 -59 -11 -116 0 -68 12 -70 13 -52 31 16 16
83 46 107 48 4 1 10 -5 13 -13z m842 -48 c-2 -32 -7 -42 -18 -40 -8 2 -23 4
-32 5 -10 1 -18 5 -18 9 0 4 -10 8 -22 9 -13 0 -32 4 -42 8 -17 7 -15 10 15
28 20 13 52 22 77 22 l43 1 -3 -42z m-1140 15 c45 -7 48 -19 10 -43 -38 -23
-70 -25 -134 -9 -38 10 -43 14 -32 27 20 24 71 43 98 36 14 -3 40 -8 58 -11z
m877 -33 c22 -7 46 -14 53 -16 6 -2 12 -10 12 -18 0 -29 -109 -48 -150 -26
-13 7 -21 7 -25 0 -3 -5 -12 -10 -18 -10 -7 0 -6 4 3 10 12 7 10 11 -10 18
-14 5 -29 7 -34 5 -4 -3 0 6 9 21 10 15 24 30 32 35 16 9 66 2 128 -19z m410
7 c11 -3 33 -8 49 -12 l30 -6 -40 -23 c-46 -27 -91 -40 -98 -28 -3 5 -3 25 1
46 4 27 10 35 22 32 9 -2 25 -7 36 -9z m-718 -33 c4 -13 -49 -40 -92 -47 -16
-2 -48 1 -70 7 l-40 12 35 26 c19 14 46 28 60 30 32 5 102 -14 107 -28z m1601
19 c-2 -14 -15 -19 -51 -21 l-47 -3 0 -66 0 -65 -37 7 c-21 4 -41 9 -45 11 -5
3 -8 39 -8 80 l0 74 96 0 c86 0 95 -2 92 -17z m-1940 -48 c7 -6 -52 -33 -78
-36 -14 -1 -51 1 -83 5 -51 7 -57 9 -45 23 7 9 30 24 52 33 37 17 40 17 95 -2
31 -11 58 -21 59 -23z m1289 -12 l38 -16 -55 -19 c-47 -16 -62 -17 -105 -7
-75 17 -86 25 -50 38 17 6 39 16 50 21 24 11 71 5 122 -17z m-753 -33 c6 -6
23 -10 38 -10 62 0 13 -33 -67 -45 -29 -4 -51 0 -80 13 -22 11 -55 23 -73 27
-39 8 -33 21 21 45 38 17 41 17 96 -1 30 -11 60 -24 65 -29z m389 24 c20 -3
37 -9 37 -13 0 -3 -15 -16 -33 -28 -39 -27 -83 -29 -134 -8 -19 8 -47 15 -61
15 l-25 0 24 26 c22 24 28 25 89 20 36 -3 82 -8 103 -12z m-773 -25 c0 -5 7
-9 15 -9 23 0 18 -16 -10 -28 -27 -13 -124 -14 -163 -3 -23 6 -22 7 19 37 39
29 45 30 90 21 27 -5 49 -14 49 -18z m1290 -21 l35 -21 -35 -15 c-39 -17 -83
-19 -148 -7 l-42 8 52 28 c64 34 92 36 138 7z m-355 -8 c3 -5 24 -10 46 -10
54 0 51 -22 -6 -50 l-45 -22 -72 22 c-67 20 -71 23 -53 36 10 8 28 14 39 14
12 0 28 5 36 10 20 13 47 13 55 0z m-800 -15 c24 -2 85 -18 85 -22 0 -11 -47
-42 -72 -48 -15 -4 -52 -1 -83 6 -45 10 -53 15 -43 26 17 21 82 52 93 45 6 -4
15 -7 20 -7z m502 -19 c9 -9 -39 -45 -78 -57 -27 -8 -42 -8 -57 0 -11 6 -32
11 -46 11 -14 0 -28 5 -31 10 -3 6 -1 10 4 10 6 0 11 6 11 14 0 8 8 17 18 20
21 6 171 0 179 -8z m773 -42 c0 -24 -2 -44 -5 -44 -2 0 -19 6 -37 14 -18 8
-41 17 -52 20 -16 6 -14 10 18 35 51 41 76 33 76 -25z m-1135 26 c3 -5 -1 -10
-10 -10 -9 0 -13 5 -10 10 3 6 8 10 10 10 2 0 7 -4 10 -10z m863 -19 c9 -5 26
-12 36 -16 17 -5 18 -8 5 -19 -33 -32 -176 -39 -186 -9 -5 14 53 47 67 38 5
-3 11 -1 15 5 8 13 40 13 63 1z m437 -6 c115 -35 133 -54 69 -75 -33 -11 -118
-9 -130 2 -4 4 5 88 10 88 0 0 24 -7 51 -15z m-795 -5 c0 -5 16 -10 35 -10 48
0 45 -22 -5 -45 -43 -19 -108 -17 -165 5 l-30 12 50 24 c51 24 115 32 115 14z
m-442 -8 c20 -13 -36 -36 -90 -36 -50 -1 -64 14 -30 33 20 12 102 14 120 3z
m115 -33 c43 -11 47 -21 12 -37 -44 -20 -170 -11 -162 11 2 6 17 19 33 29 29
17 42 17 117 -3z m875 -11 c32 -9 33 -10 17 -28 -16 -17 -92 -43 -105 -35 -4
2 -23 5 -42 7 -32 2 -35 4 -24 21 14 24 86 59 106 51 8 -4 30 -11 48 -16z
m-337 -25 c27 -10 49 -20 49 -24 0 -3 -24 -14 -54 -24 -49 -17 -60 -17 -110
-5 -31 7 -56 19 -56 25 0 11 78 43 109 44 7 1 35 -7 62 -16z m-366 -13 c3 -5
20 -10 36 -10 26 0 28 -2 20 -19 -18 -32 -66 -42 -137 -29 -62 11 -64 12 -46
31 9 11 26 23 37 28 28 11 83 11 90 -1z m863 -21 c2 -5 17 -9 33 -9 40 0 36
-18 -8 -37 -39 -16 -94 -13 -148 7 -24 9 -26 13 -14 25 31 30 128 40 137 14z
m202 17 c0 -12 -13 -36 -19 -36 -4 0 -7 9 -8 20 -1 11 4 20 13 20 8 0 14 -2
14 -4z m285 -31 c66 -24 79 -45 40 -63 -35 -16 -71 -15 -133 3 -52 16 -52 16
-52 56 l0 41 43 -7 c23 -4 69 -17 102 -30z m-817 -15 c17 -11 32 -24 32 -29 0
-20 -153 -33 -182 -15 -12 8 72 64 97 64 11 0 35 -9 53 -20z m-286 -26 c15 -9
-20 -42 -53 -49 -30 -7 -139 13 -139 25 0 9 32 36 49 42 17 5 128 -9 143 -18z
m801 -8 c34 -14 36 -43 2 -52 -14 -3 -55 -3 -91 1 l-66 7 24 25 c39 42 66 46
131 19z m-290 -18 c36 2 34 -7 -10 -41 -28 -21 -47 -27 -77 -26 -48 3 -96 17
-96 29 0 5 12 18 28 30 23 19 34 21 77 14 28 -4 62 -7 78 -6z m-343 -39 l45
-11 -35 -19 c-36 -18 -106 -23 -165 -10 l-30 7 43 31 c36 26 48 30 70 23 15
-5 47 -14 72 -21z m823 -1 c51 -26 -9 -53 -98 -43 -57 6 -65 9 -54 20 41 41
100 50 152 23z m-299 -39 c31 -12 56 -28 56 -35 0 -14 -58 -34 -97 -34 -13 0
-46 9 -75 20 -29 11 -62 20 -73 20 -15 1 -10 7 20 25 50 31 96 32 169 4z
m-352 -9 c36 -10 37 -11 19 -29 -28 -28 -55 -34 -123 -26 l-60 7 28 29 c31 32
69 37 136 19z m200 -76 c30 -15 31 -17 14 -30 -32 -23 -98 -27 -140 -10 -21 9
-42 13 -47 10 -5 -3 -9 0 -9 6 0 5 15 19 33 31 37 23 96 20 149 -7z"/>
<path d="M5855 7083 c-115 -7 -318 -19 -450 -26 l-240 -12 -2 -400 -2 -401 97
3 c53 2 244 10 423 18 180 8 347 15 373 15 l46 0 0 410 c0 384 -1 410 -17 409
-10 -1 -112 -8 -228 -16z m-175 -413 l0 -140 -90 0 -90 0 0 140 0 140 90 0 90
0 0 -140z"/>
<path d="M2540 8518 c0 -9 5 -20 10 -23 13 -8 13 5 0 25 -8 13 -10 13 -10 -2z"/>
<path d="M2282 8485 c0 -16 2 -22 5 -12 2 9 2 23 0 30 -3 6 -5 -1 -5 -18z"/>
<path d="M4030 8479 c0 -11 4 -18 10 -14 5 3 7 12 3 20 -7 21 -13 19 -13 -6z"/>
<path d="M3268 8463 c7 -3 16 -2 19 1 4 3 -2 6 -13 5 -11 0 -14 -3 -6 -6z"/>
<path d="M2228 8453 c7 -3 16 -2 19 1 4 3 -2 6 -13 5 -11 0 -14 -3 -6 -6z"/>
<path d="M4098 8453 c6 -2 18 -2 25 0 6 3 1 5 -13 5 -14 0 -19 -2 -12 -5z"/>
<path d="M7700 8413 l-35 -4 3 -54 c2 -30 8 -55 12 -55 5 0 7 8 5 19 -2 12 2
18 13 17 11 -1 18 8 20 27 2 19 9 27 23 27 16 0 19 -7 19 -41 0 -40 -1 -41
-29 -37 -17 2 -28 1 -25 -4 6 -10 45 -10 60 0 15 10 27 67 19 92 -6 20 -11 21
-85 13z"/>
<path d="M7883 8413 c-35 -4 -43 -17 -18 -27 10 -3 15 -19 15 -46 0 -36 2 -40
25 -40 23 0 25 3 25 50 0 28 0 53 1 57 1 10 -8 11 -48 6z"/>
<path d="M8073 8412 l-43 -3 0 -42 c0 -60 9 -69 66 -65 l49 3 0 54 c0 59 1 59
-72 53z m37 -62 c0 -20 -5 -30 -15 -30 -10 0 -15 10 -15 30 0 20 5 30 15 30
10 0 15 -10 15 -30z"/>
<path d="M8618 8413 c-14 -4 -18 -15 -18 -59 0 -30 3 -54 6 -54 15 0 34 32 34
59 0 26 4 31 23 31 18 0 22 -5 22 -32 0 -23 5 -34 18 -36 12 -2 17 3 17 17 0
12 -6 21 -12 21 -10 0 -9 3 1 9 11 7 11 9 0 14 -10 4 -9 6 4 6 31 2 18 18 -20
25 -41 6 -48 6 -75 -1z"/>
<path d="M8826 8412 c-48 -3 -48 -3 -42 -34 3 -17 6 -41 6 -54 0 -22 4 -24 45
-24 26 0 45 5 45 11 0 6 7 9 15 5 12 -4 15 4 15 43 0 55 -4 58 -84 53z m37
-54 c6 -42 2 -48 -33 -48 -26 0 -29 4 -28 25 3 27 13 33 21 13 3 -8 6 -6 6 5
1 9 -5 17 -11 17 -9 0 -8 4 2 10 26 17 38 11 43 -22z"/>
<path d="M9038 8413 c-29 -4 -40 -33 -13 -33 11 0 15 -11 15 -40 0 -36 3 -40
25 -40 24 0 25 3 25 60 0 42 -4 60 -12 59 -7 -1 -25 -4 -40 -6z"/>
<path d="M9180 8357 l0 -58 58 3 57 3 3 58 3 58 -60 -3 -61 -2 0 -59z m82 -2
c3 -27 0 -35 -12 -35 -8 0 -26 -3 -40 -6 l-25 -5 23 17 c12 9 22 27 22 40 0
38 27 29 32 -11z"/>
<path d="M6595 8400 c-3 -5 -2 -10 4 -10 5 0 11 -21 13 -47 2 -39 7 -49 23
-51 18 -3 20 2 17 58 -4 55 -6 60 -27 60 -13 0 -27 -4 -30 -10z"/>
<path d="M7074 8379 c3 -17 6 -42 6 -55 0 -21 5 -24 35 -24 l35 0 0 55 0 55
-41 0 c-41 0 -41 0 -35 -31z"/>
<path d="M8221 8373 c0 -41 16 -90 19 -63 2 8 2 19 1 24 -1 5 5 6 14 3 11 -5
15 0 15 18 0 18 5 25 20 25 16 0 20 -7 20 -30 0 -25 -4 -30 -24 -30 -14 0 -28
-4 -31 -10 -4 -6 8 -10 29 -10 20 0 35 3 35 8 -5 28 2 35 16 16 13 -17 14 -15
15 34 l0 52 -65 0 -65 0 1 -37z"/>
<path d="M8410 8353 l0 -57 21 22 c11 13 22 35 23 49 2 15 11 30 22 34 13 5 6
8 -23 8 l-43 1 0 -57z"/>
<path d="M8520 8399 c0 -5 -4 -8 -8 -5 -4 2 -9 -10 -9 -27 -2 -26 0 -28 7 -12
7 17 9 15 9 -12 1 -54 21 -37 21 17 0 28 -4 50 -10 50 -5 0 -10 -5 -10 -11z"/>
<path d="M657 8353 c-8 -8 -9 -60 -1 -89 5 -17 13 -22 40 -22 l34 0 0 59 0 59
-33 0 c-19 0 -37 -3 -40 -7z"/>
<path d="M860 8300 l0 -60 35 0 35 0 0 60 0 60 -35 0 -35 0 0 -60z"/>
<path d="M1035 8351 c-2 -5 -4 -32 -4 -60 2 -52 2 -52 33 -49 30 3 31 4 34 59
l3 56 -30 1 c-17 0 -33 -3 -36 -7z"/>
<path d="M1248 8353 c-27 -4 -28 -7 -28 -59 l0 -54 35 0 35 0 0 50 c0 28 0 53
1 57 1 10 -9 11 -43 6z"/>
<path d="M1410 8300 l0 -60 34 0 c33 0 34 1 40 50 8 62 4 70 -40 70 l-34 0 0
-60z"/>
<path d="M1590 8300 l0 -60 35 0 35 0 0 60 0 60 -35 0 -35 0 0 -60z"/>
<path d="M1770 8300 l0 -60 34 0 c33 0 34 1 41 50 8 61 3 70 -41 70 l-34 0 0
-60z"/>
<path d="M1957 8353 c-4 -3 -7 -30 -7 -58 l0 -52 40 -1 40 -2 0 60 0 60 -33 0
c-19 0 -37 -3 -40 -7z"/>
<path d="M2140 8299 l0 -60 38 3 37 3 3 58 3 57 -41 0 -40 0 0 -61z"/>
<path d="M2350 8300 l0 -60 35 0 35 0 0 60 0 60 -35 0 -35 0 0 -60z"/>
<path d="M2530 8302 l0 -59 34 -1 c34 -1 34 0 41 48 8 61 3 70 -41 70 l-34 0
0 -58z"/>
<path d="M2719 8356 c-2 -2 -3 -28 -1 -58 4 -53 4 -54 35 -53 32 0 32 0 35 58
l3 57 -34 0 c-18 0 -36 -2 -38 -4z"/>
<path d="M2910 8300 l0 -60 35 0 35 0 0 60 0 60 -35 0 -35 0 0 -60z"/>
<path d="M3100 8306 c0 -49 2 -54 25 -58 33 -7 35 -3 35 59 0 52 0 53 -30 53
-30 0 -30 -1 -30 -54z"/>
<path d="M3300 8298 c0 -59 0 -59 28 -56 25 3 27 7 30 54 3 51 2 52 -28 56
l-30 5 0 -59z"/>
<path d="M3490 8300 l0 -60 35 0 c32 0 35 3 35 29 0 16 3 43 6 60 6 31 6 31
-35 31 l-41 0 0 -60z"/>
<path d="M3682 8303 c3 -57 3 -58 36 -61 l32 -3 0 60 0 61 -35 0 -36 0 3 -57z"/>
<path d="M3884 8344 c3 -9 6 -36 6 -60 0 -40 2 -44 25 -44 24 0 25 3 25 60 l0
60 -31 0 c-24 0 -30 -3 -25 -16z"/>
<path d="M4070 8305 l0 -55 48 0 48 0 -1 55 0 55 -47 0 -48 0 0 -55z m70 0 c0
-31 -3 -35 -25 -35 -21 0 -25 4 -24 28 2 23 2 24 6 5 7 -34 20 -28 15 7 -3 23
0 30 12 30 12 0 16 -9 16 -35z"/>
<path d="M4270 8300 l0 -60 35 0 35 0 0 60 0 60 -35 0 -35 0 0 -60z"/>
<path d="M8648 8303 c12 -2 30 -2 40 0 9 3 -1 5 -23 4 -22 0 -30 -2 -17 -4z"/>
<path d="M7657 8192 c7 -4 13 -29 14 -55 2 -42 5 -47 26 -47 21 0 23 4 23 55
l0 55 -37 0 c-22 0 -33 -4 -26 -8z"/>
<path d="M9622 8144 c2 -46 7 -58 23 -64 19 -7 20 -4 17 56 -3 56 -6 64 -23
64 -18 0 -20 -6 -17 -56z"/>
<path d="M6532 8123 c2 -46 7 -59 21 -61 15 -3 17 5 17 57 0 55 -2 61 -20 61
-19 0 -21 -5 -18 -57z"/>
<path d="M670 8105 c0 -54 0 -55 30 -55 30 0 30 1 30 55 0 54 0 55 -30 55 -30
0 -30 -1 -30 -55z"/>
<path d="M854 8146 c-3 -8 -4 -31 -2 -52 3 -37 5 -39 41 -42 20 -2 37 0 38 5
0 4 2 29 5 56 l5 47 -41 0 c-26 0 -43 -5 -46 -14z"/>
<path d="M1030 8105 c0 -54 0 -55 30 -55 30 0 30 1 30 55 0 54 0 55 -30 55
-30 0 -30 -1 -30 -55z"/>
<path d="M1240 8105 c0 -52 1 -55 25 -55 24 0 25 3 25 55 0 52 -1 55 -25 55
-24 0 -25 -3 -25 -55z"/>
<path d="M1404 8147 c-2 -7 -2 -24 0 -37 2 -14 5 -33 5 -42 1 -14 10 -18 36
-18 l35 0 0 55 0 55 -35 0 c-20 0 -38 -6 -41 -13z"/>
<path d="M1597 8153 c-4 -3 -7 -28 -7 -55 0 -46 1 -48 29 -48 32 0 37 7 40 68
2 40 1 42 -27 42 -16 0 -32 -3 -35 -7z"/>
<path d="M1760 8105 l0 -55 40 0 40 0 0 55 0 55 -40 0 -40 0 0 -55z"/>
<path d="M1952 8108 c3 -52 4 -53 36 -56 l32 -3 0 55 0 56 -36 0 -35 0 3 -52z"/>
<path d="M2140 8105 l0 -55 40 0 40 0 0 55 0 55 -40 0 -40 0 0 -55z"/>
<path d="M2370 8106 c0 -53 1 -56 26 -56 24 0 25 2 22 53 -3 45 -6 52 -25 55
-22 3 -23 0 -23 -52z"/>
<path d="M2530 8105 l0 -55 35 0 35 0 0 55 0 55 -35 0 -35 0 0 -55z"/>
<path d="M2720 8105 l0 -55 35 0 35 0 0 55 0 55 -35 0 -35 0 0 -55z"/>
<path d="M2900 8105 l0 -55 40 0 40 0 0 55 0 55 -40 0 -40 0 0 -55z"/>
<path d="M3120 8156 c-3 -2 -3 -27 -2 -55 3 -43 7 -51 23 -51 18 0 20 6 17 52
-2 38 -7 54 -18 56 -9 1 -18 1 -20 -2z"/>
<path d="M3288 8105 l-3 -55 38 0 37 0 0 55 0 55 -34 0 -34 0 -4 -55z"/>
<path d="M3675 8140 c-3 -10 -3 -35 1 -55 5 -30 10 -35 35 -35 28 0 29 1 29
55 0 54 0 55 -29 55 -21 0 -32 -6 -36 -20z"/>
<path d="M3900 8105 c0 -48 2 -55 20 -55 18 0 20 7 20 55 0 48 -2 55 -20 55
-18 0 -20 -7 -20 -55z"/>
<path d="M4129 8114 c2 -32 -1 -49 -10 -55 -9 -6 -1 -9 24 -9 l37 0 0 55 c0
53 -1 55 -28 55 -26 0 -27 -2 -23 -46z"/>
<path d="M8800 7950 l0 -70 40 0 40 0 0 64 c0 58 -2 64 -22 70 -55 14 -58 11
-58 -64z"/>
<path d="M9150 7950 l0 -70 35 0 35 0 0 65 c0 45 -4 65 -12 66 -7 0 -23 2 -35
5 -22 4 -23 1 -23 -66z"/>
<path d="M9327 8013 c-9 -8 -9 -80 -1 -110 5 -17 14 -23 35 -23 29 0 29 0 29
64 0 58 -2 64 -22 70 -29 7 -33 7 -41 -1z"/>
<path d="M6720 7945 l0 -65 35 0 35 0 0 65 0 65 -35 0 -35 0 0 -65z"/>
<path d="M6870 7945 l0 -65 45 0 45 0 0 65 0 65 -45 0 -45 0 0 -65z"/>
<path d="M7050 7945 l0 -65 45 0 45 0 0 65 0 65 -45 0 -45 0 0 -65z"/>
<path d="M7277 8003 c-4 -3 -7 -33 -7 -65 l0 -58 40 0 40 0 0 65 0 65 -33 0
c-19 0 -37 -3 -40 -7z"/>
<path d="M7462 7948 l3 -63 38 -3 37 -3 0 65 0 66 -40 0 -41 0 3 -62z"/>
<path d="M7650 7945 l0 -65 30 0 30 0 0 65 0 65 -30 0 -30 0 0 -65z"/>
<path d="M7890 7945 l0 -65 30 0 30 0 0 65 0 65 -30 0 -30 0 0 -65z"/>
<path d="M8060 7945 l0 -65 35 0 35 0 0 65 0 65 -35 0 -35 0 0 -65z"/>
<path d="M8280 7945 l0 -65 35 0 35 0 0 65 0 65 -35 0 -35 0 0 -65z"/>
<path d="M8480 7945 l0 -65 35 0 35 0 0 65 0 65 -35 0 -35 0 0 -65z"/>
<path d="M8640 7945 l0 -65 34 0 34 0 4 65 3 65 -37 0 -38 0 0 -65z"/>
<path d="M8980 7945 l0 -65 35 0 35 0 0 65 0 65 -35 0 -35 0 0 -65z"/>
<path d="M9490 7945 l0 -65 30 0 30 0 0 65 0 65 -30 0 -30 0 0 -65z"/>
<path d="M3500 7908 l0 -58 35 0 35 0 0 54 0 54 -35 4 -35 4 0 -58z"/>
<path d="M647 7953 c-13 -12 -7 -23 13 -23 17 0 20 -7 20 -45 0 -41 2 -45 25
-45 24 0 25 3 25 60 l0 60 -38 0 c-21 0 -42 -3 -45 -7z"/>
<path d="M854 7929 c3 -17 6 -42 6 -55 0 -21 5 -24 34 -24 l34 0 4 55 3 55
-44 0 c-43 0 -43 0 -37 -31z"/>
<path d="M1022 7905 c3 -55 3 -55 36 -55 l32 0 0 55 0 55 -35 0 -36 0 3 -55z"/>
<path d="M1220 7905 c0 -48 3 -55 19 -55 11 0 26 -3 35 -6 14 -5 16 3 16 55
l0 61 -35 0 -35 0 0 -55z"/>
<path d="M1400 7905 l0 -55 40 0 40 0 0 55 0 55 -40 0 -40 0 0 -55z"/>
<path d="M1580 7905 l0 -55 40 0 40 0 0 55 0 55 -40 0 -40 0 0 -55z"/>
<path d="M1760 7905 l0 -55 40 0 40 0 0 55 0 55 -40 0 -40 0 0 -55z"/>
<path d="M1940 7906 l0 -54 40 -4 40 -4 0 58 0 58 -40 0 -40 0 0 -54z"/>
<path d="M2140 7950 c0 -5 7 -10 16 -10 13 0 15 -9 12 -45 -3 -41 -1 -45 19
-45 21 0 23 5 23 55 l0 55 -35 0 c-19 0 -35 -4 -35 -10z"/>
<path d="M2360 7905 c0 -30 4 -55 9 -55 5 0 16 -3 25 -6 14 -5 16 3 16 55 0
58 -1 61 -25 61 -24 0 -25 -3 -25 -55z"/>
<path d="M2530 7905 l0 -55 40 0 40 0 0 55 0 55 -40 0 -40 0 0 -55z"/>
<path d="M2710 7905 l0 -55 40 0 40 0 0 55 0 55 -40 0 -40 0 0 -55z"/>
<path d="M3300 7905 l0 -55 35 0 35 0 0 55 0 55 -35 0 -35 0 0 -55z"/>
<path d="M3680 7905 l0 -55 38 0 39 0 2 55 2 55 -40 0 -41 0 0 -55z"/>
<path d="M3880 7905 l0 -55 35 0 35 0 0 55 0 55 -35 0 -35 0 0 -55z"/>
<path d="M650 7745 c0 -8 9 -15 20 -15 15 0 20 -7 20 -28 0 -15 -5 -33 -12
-40 -9 -9 -5 -12 20 -12 l32 0 0 55 0 55 -40 0 c-29 0 -40 -4 -40 -15z"/>
<path d="M1050 7705 c0 -50 2 -55 23 -55 21 0 22 4 19 55 -3 46 -7 55 -23 55
-16 0 -19 -8 -19 -55z"/>
<path d="M1580 7750 c0 -5 5 -10 11 -10 7 0 10 -17 7 -45 -3 -43 -2 -45 24
-45 27 0 28 2 28 55 l0 55 -35 0 c-19 0 -35 -4 -35 -10z"/>
<path d="M2160 7699 c0 -60 0 -60 28 -57 26 3 27 6 30 61 l3 57 -31 0 -30 0 0
-61z"/>
<path d="M3145 7753 c-18 -3 -20 -10 -17 -62 3 -52 6 -58 23 -54 16 5 19 15
19 64 0 33 -1 58 -2 58 -2 -1 -12 -4 -23 -6z"/>
<path d="M663 7543 c-14 -3 -20 -9 -17 -18 3 -8 11 -12 18 -9 16 6 28 -42 19
-75 -5 -18 -1 -21 26 -21 l31 0 0 65 c0 65 0 65 -27 64 -16 -1 -38 -4 -50 -6z"/>
<path d="M2395 7540 c-3 -5 -19 -7 -35 -3 l-30 6 0 -57 c0 -56 0 -56 31 -56
21 0 28 4 23 12 -4 7 -8 26 -8 42 0 24 5 32 21 34 17 3 21 -3 25 -33 3 -26 0
-39 -11 -45 -13 -7 -10 -9 12 -10 26 0 27 2 27 54 0 50 -18 87 -28 58 -2 -7
-8 -12 -13 -12 -6 0 -7 5 -4 10 3 6 4 10 1 10 -3 0 -8 -4 -11 -10z"/>
<path d="M2742 7486 c1 -63 2 -66 25 -66 23 0 24 2 21 63 -3 55 -5 62 -25 65
-20 3 -21 -1 -21 -62z"/>
<path d="M7788 7543 c-27 -4 -28 -7 -28 -59 l0 -54 55 0 55 0 0 60 c0 66 1 65
-82 53z m46 -60 c-9 -35 -12 -39 -24 -27 -13 13 -1 54 16 54 11 0 13 -7 8 -27z"/>
<path d="M7920 7488 l0 -58 48 0 c66 0 74 8 70 66 l-3 49 -57 0 -58 0 0 -57z
m80 -9 c0 -52 -24 -48 -28 4 -2 28 1 37 12 37 12 0 16 -11 16 -41z"/>
<path d="M8093 7534 c-2 -7 -3 -31 -1 -55 l3 -44 63 -3 62 -3 0 59 0 60 -61
-2 c-35 0 -63 -6 -66 -12z m77 -55 c0 -28 -4 -39 -12 -37 -24 8 -22 78 2 78 5
0 10 -18 10 -41z"/>
<path d="M9499 7543 c-25 -4 -26 -6 -18 -49 5 -24 6 -51 3 -59 -5 -11 1 -15
20 -15 25 0 26 2 26 65 0 36 -1 64 -2 64 -2 -1 -15 -4 -29 -6z"/>
<path d="M820 7479 l0 -59 60 0 60 0 0 59 0 59 -60 1 -60 0 0 -60z m80 -10 c0
-28 -4 -39 -12 -37 -24 8 -22 78 2 78 5 0 10 -18 10 -41z"/>
<path d="M1000 7485 l0 -55 60 0 60 0 0 55 0 55 -60 0 -60 0 0 -55z m84 -10
c0 -23 -5 -31 -22 -33 -18 -3 -22 1 -22 26 0 33 8 44 29 40 9 -2 15 -14 15
-33z"/>
<path d="M1413 7533 c-32 -4 -33 -5 -33 -54 0 -45 2 -49 24 -49 20 0 25 6 29
33 4 31 4 31 5 -6 2 -31 6 -38 20 -35 13 2 18 15 20 61 3 62 8 59 -65 50z"/>
<path d="M1560 7485 l0 -55 60 0 60 0 0 55 0 55 -60 0 -60 0 0 -55z m70 -15
c0 -20 -5 -30 -15 -30 -10 0 -15 10 -15 30 0 20 5 30 15 30 10 0 15 -10 15
-30z"/>
<path d="M1773 7533 c-33 -4 -33 -5 -33 -59 0 -48 2 -54 21 -54 19 0 21 5 17
40 -3 30 0 40 11 40 10 0 12 -10 8 -40 -5 -40 -5 -40 29 -40 l34 0 0 60 c0 67
4 64 -87 53z"/>
<path d="M1940 7481 l0 -60 50 1 50 0 0 59 0 59 -50 0 -50 0 0 -59z m70 -7 c0
-27 -4 -43 -10 -39 -5 3 -10 24 -10 46 0 21 5 39 10 39 6 0 10 -21 10 -46z"/>
<path d="M2180 7520 c-7 -13 -7 -20 -1 -20 7 0 7 -8 1 -24 -7 -19 -4 -26 16
-36 13 -8 27 -10 31 -7 3 4 -1 7 -11 7 -14 0 -17 7 -14 38 2 25 8 37 18 37 10
0 16 -12 18 -37 3 -30 7 -38 23 -38 15 0 19 7 19 31 0 17 -4 28 -10 24 -5 -3
-10 1 -10 9 0 9 5 16 11 16 5 0 7 5 4 10 -3 6 -24 10 -45 10 -29 0 -42 -5 -50
-20z"/>
<path d="M2550 7525 c0 -8 5 -15 10 -15 6 0 10 -20 10 -45 0 -38 3 -45 20 -45
18 0 20 7 20 60 l0 60 -30 0 c-20 0 -30 -5 -30 -15z"/>
<path d="M7220 7485 c0 -46 3 -55 18 -55 11 0 17 8 18 25 3 52 13 73 31 69 13
-4 18 -16 18 -45 1 -21 -3 -39 -8 -39 -4 0 -5 -4 -2 -10 3 -5 13 -10 21 -10
11 0 14 14 14 60 l0 60 -55 0 -55 0 0 -55z"/>
<path d="M7427 7533 c-21 -5 -18 -28 4 -28 9 0 16 -14 19 -39 3 -27 10 -40 23
-42 14 -2 17 6 17 57 0 63 -5 67 -63 52z"/>
<path d="M7581 7493 c1 -41 2 -44 8 -18 7 29 18 33 59 20 18 -6 15 -42 -5 -54
-15 -8 -11 -10 20 -11 l37 0 0 55 0 55 -60 0 -60 0 1 -47z"/>
<path d="M8270 7484 l0 -55 58 3 57 3 3 53 3 52 -60 0 -61 0 0 -56z m80 -5 c0
-33 -3 -40 -17 -37 -28 5 -14 76 15 78 1 0 2 -18 2 -41z"/>
<path d="M8447 7533 c-4 -3 -7 -28 -7 -55 0 -34 4 -48 14 -48 17 0 27 36 20
67 -5 19 -2 23 15 23 17 0 21 -6 21 -36 0 -19 -4 -33 -9 -30 -5 3 -11 -1 -15
-9 -4 -11 2 -15 24 -15 27 0 30 3 31 33 0 17 2 42 5 55 4 20 0 22 -44 22 -27
0 -52 -3 -55 -7z"/>
<path d="M8610 7485 l0 -55 49 0 c54 0 56 3 60 68 l3 42 -56 0 -56 0 0 -55z
m60 0 c0 -14 0 -28 1 -32 0 -5 -7 -9 -15 -11 -13 -3 -15 4 -12 30 3 18 5 34 5
36 1 1 6 2 11 2 6 0 10 -11 10 -25z"/>
<path d="M8810 7525 c0 -8 8 -15 18 -16 10 0 12 -3 5 -6 -7 -2 -13 -20 -13
-38 0 -27 5 -34 26 -39 15 -4 28 -6 29 -4 1 2 5 29 7 61 l5 57 -39 0 c-27 0
-38 -4 -38 -15z m32 -60 c3 -14 1 -25 -3 -25 -5 0 -9 11 -9 25 0 14 2 25 4 25
2 0 6 -11 8 -25z"/>
<path d="M8963 7495 c0 -37 3 -45 18 -45 15 0 19 8 20 38 l2 37 6 -40 c6 -38
5 -40 -24 -46 -25 -5 -23 -7 17 -8 l46 -1 4 55 3 55 -46 0 -46 0 0 -45z"/>
<path d="M9130 7485 l0 -55 44 0 44 0 4 55 3 55 -47 0 -48 0 0 -55z"/>
<path d="M9310 7520 c0 -11 5 -20 10 -20 6 0 10 -11 10 -24 0 -13 6 -27 13
-29 10 -4 10 -6 0 -6 -24 -2 -13 -21 12 -21 24 0 25 3 25 60 l0 60 -35 0 c-28
0 -35 -4 -35 -20z"/>
<path d="M1180 7480 c0 -42 3 -50 19 -50 15 0 19 7 17 35 -1 22 3 35 11 35 8
0 13 -14 13 -40 0 -38 2 -40 30 -40 30 0 30 1 30 55 l0 55 -60 0 -60 0 0 -50z"/>
<path d="M8480 7500 c0 -5 5 -10 10 -10 6 0 10 5 10 10 0 6 -4 10 -10 10 -5 0
-10 -4 -10 -10z"/>
<path d="M826 7321 c-4 -5 -2 -11 4 -13 5 -1 11 -22 12 -45 1 -39 4 -43 27
-43 25 0 26 2 23 55 -4 53 -5 55 -32 55 -16 0 -31 -4 -34 -9z"/>
<path d="M1060 7275 c0 -52 1 -55 25 -55 24 0 25 3 25 55 0 52 -1 55 -25 55
-24 0 -25 -3 -25 -55z"/>
<path d="M1250 7298 c0 -48 10 -78 26 -78 10 0 14 15 14 55 0 48 -2 55 -20 55
-16 0 -20 -7 -20 -32z"/>
<path d="M1970 7316 c0 -7 3 -28 7 -47 5 -28 7 -30 14 -14 7 19 8 19 8 -2 1
-12 -5 -24 -11 -26 -7 -3 -3 -6 9 -6 21 -1 22 3 21 54 -1 50 -3 55 -25 55 -13
0 -23 -6 -23 -14z"/>
<path d="M2505 7282 c0 -26 4 -53 8 -59 17 -27 27 -10 27 47 0 50 -3 60 -17
60 -15 0 -18 -9 -18 -48z"/>
<path d="M2719 7319 c21 -8 23 -14 19 -59 -5 -47 -4 -50 18 -50 23 0 24 4 24
60 l0 60 -42 -1 c-38 0 -40 -1 -19 -10z"/>
<path d="M7270 7275 c0 -50 2 -55 23 -55 20 0 22 5 22 55 0 50 -2 55 -22 55
-21 0 -23 -5 -23 -55z"/>
<path d="M800 7268 c0 -7 5 -20 10 -28 8 -12 10 -11 10 7 0 12 -4 25 -10 28
-5 3 -10 0 -10 -7z"/>
<path d="M800 7068 l0 -58 34 0 c19 0 46 4 60 10 23 8 26 15 26 55 0 49 3 47
-82 49 l-38 1 0 -57z m109 -2 c-1 -15 -2 -17 -6 -4 -2 9 -10 19 -18 22 -10 4
-12 -3 -8 -30 5 -33 5 -34 -28 -33 -19 0 -28 3 -21 6 6 2 12 20 12 38 0 27 4
34 23 37 29 5 47 -9 46 -36z"/>
<path d="M1920 7068 c0 -57 1 -58 28 -58 26 0 27 2 24 44 -3 35 0 44 15 48 31
8 43 -2 42 -35 l-1 -32 -7 30 c-7 29 -7 28 -12 -12 -4 -41 4 -57 14 -30 4 9 6
9 6 -1 1 -7 6 -10 11 -7 6 3 10 28 10 55 l0 48 -65 4 -65 3 0 -57z m27 0 c-3
-7 -5 -2 -5 12 0 14 2 19 5 13 2 -7 2 -19 0 -25z"/>
<path d="M7269 7126 c-2 -2 -2 -29 -1 -60 4 -52 6 -56 28 -56 23 0 24 3 24 60
0 56 -1 60 -23 60 -13 0 -26 -2 -28 -4z"/>
<path d="M7460 7070 l0 -60 35 0 35 0 0 60 0 60 -35 0 -35 0 0 -60z"/>
<path d="M7640 7070 c0 -57 1 -60 25 -60 24 0 25 3 25 60 0 57 -1 60 -25 60
-24 0 -25 -3 -25 -60z"/>
<path d="M8137 7123 l-48 -4 3 -52 3 -51 40 -2 40 -3 -37 11 c-23 6 -38 16
-38 25 0 13 3 13 15 3 13 -11 15 -8 15 18 0 22 6 31 21 35 22 6 30 -6 33 -48
0 -14 7 -27 14 -30 9 -3 12 11 12 50 0 38 -4 54 -12 53 -7 -1 -35 -3 -61 -5z"/>
<path d="M8297 7123 c-24 -4 -28 -8 -23 -26 3 -12 6 -28 6 -35 0 -7 5 -10 11
-6 9 5 10 -1 5 -20 -6 -24 -4 -26 29 -26 l35 0 0 60 c0 65 3 63 -63 53z"/>
<path d="M8473 7123 l-53 -4 0 -50 c0 -40 3 -49 18 -49 9 0 28 -3 41 -7 17 -4
22 -3 17 5 -4 7 -17 12 -29 13 -12 0 -16 3 -9 6 6 2 12 18 12 34 0 23 4 29 23
29 19 0 22 -5 21 -40 -2 -42 12 -62 27 -39 12 18 7 102 -6 104 -5 1 -34 -1
-62 -2z"/>
<path d="M8643 7123 l-43 -4 0 -48 c0 -26 3 -50 6 -54 12 -12 34 22 34 52 0
24 4 31 19 31 25 0 35 -67 12 -80 -12 -7 -8 -9 17 -10 l32 0 0 60 c0 51 -3 60
-17 58 -10 -1 -37 -3 -60 -5z"/>
<path d="M8828 7123 c-16 -3 -28 -11 -28 -19 0 -8 5 -12 10 -9 6 4 10 -12 10
-39 0 -44 1 -46 30 -46 l30 0 0 60 c0 42 -4 60 -12 59 -7 -1 -25 -4 -40 -6z"/>
<path d="M9013 7123 c-29 -4 -48 -23 -23 -23 6 0 10 -20 10 -45 0 -43 1 -45
30 -45 l30 0 0 60 c0 33 -3 59 -7 58 -5 0 -23 -3 -40 -5z"/>
<path d="M9372 7122 c-24 -7 -31 -24 -13 -30 6 -2 11 1 11 7 0 6 4 11 9 11 13
0 18 -89 6 -94 -5 -3 -2 -5 8 -5 14 -1 17 8 17 59 0 33 -3 60 -7 59 -5 -1 -18
-4 -31 -7z"/>
<path d="M651 7090 c1 -17 3 -19 6 -7 7 26 42 21 53 -9 12 -32 12 -34 0 -34
-5 0 -10 9 -10 20 0 11 -3 20 -7 20 -5 0 -8 -16 -8 -35 0 -31 3 -35 25 -35 18
0 21 3 11 9 -9 6 -10 11 -2 15 6 4 11 25 11 47 l0 39 -40 -2 c-36 -3 -40 -6
-39 -28z"/>
<path d="M983 7069 c7 -68 17 -74 18 -13 2 47 2 48 9 14 l7 -35 2 43 c1 37 -2
42 -20 42 -20 0 -21 -4 -16 -51z"/>
<path d="M1280 7110 c0 -5 7 -10 15 -10 8 0 15 -4 15 -10 0 -5 -4 -10 -10 -10
-5 0 -10 -7 -10 -15 0 -8 4 -15 10 -15 6 0 6 -9 0 -25 -7 -20 -6 -25 5 -25 12
0 15 14 15 60 0 53 -2 60 -20 60 -11 0 -20 -4 -20 -10z"/>
<path d="M1400 7105 c0 -8 5 -15 10 -15 6 0 10 -18 10 -40 0 -39 1 -40 35 -40
l35 0 0 55 0 55 -45 0 c-33 0 -45 -4 -45 -15z"/>
<path d="M1560 7065 l0 -55 55 0 55 0 0 55 0 55 -55 0 -55 0 0 -55z m47 3 c-7
-4 -6 -12 4 -24 9 -11 9 -15 2 -10 -8 4 -13 2 -13 -4 0 -6 -4 -9 -8 -6 -4 3
-6 21 -4 40 3 28 7 32 17 23 9 -8 9 -14 2 -19z"/>
<path d="M1760 7065 l0 -55 44 0 c42 0 44 1 50 38 11 71 11 72 -44 72 l-50 0
0 -55z m17 -27 c-2 -13 -4 -3 -4 22 0 25 2 35 4 23 2 -13 2 -33 0 -45z"/>
<path d="M2110 7065 c0 -52 11 -71 24 -42 5 10 7 10 12 0 6 -14 42 -17 68 -7
12 4 16 20 16 55 l0 49 -60 0 -60 0 0 -55z m85 -5 c0 -31 -4 -40 -17 -40 -14
0 -18 9 -18 40 0 31 4 40 18 40 13 0 17 -9 17 -40z"/>
<path d="M2330 7111 c0 -4 11 -6 25 -3 14 2 25 6 25 8 0 2 -11 4 -25 4 -14 0
-25 -4 -25 -9z"/>
<path d="M2413 7113 c19 -5 23 -52 7 -84 -6 -11 -7 -19 -1 -19 13 0 21 26 21
71 0 34 -3 39 -22 38 -17 -1 -19 -2 -5 -6z"/>
<path d="M2571 7110 c13 -7 15 -20 11 -55 -4 -41 -3 -45 17 -45 19 0 21 6 21
55 l0 55 -32 0 c-26 -1 -29 -3 -17 -10z"/>
<path d="M9150 7109 c0 -5 9 -9 21 -9 15 0 19 -4 14 -19 -3 -11 -1 -22 5 -26
6 -4 10 4 10 19 0 21 5 26 24 26 22 0 23 -3 16 -39 -6 -34 -5 -38 12 -33 14 3
18 14 18 48 l0 44 -60 -1 c-33 -1 -60 -6 -60 -10z"/>
<path d="M2310 7081 c0 -6 4 -13 10 -16 6 -3 7 1 4 9 -7 18 -14 21 -14 7z"/>
<path d="M9152 7048 c1 -18 3 -27 5 -20 3 6 10 9 16 6 9 -5 9 -4 0 6 -6 7 -9
19 -6 26 3 8 0 14 -5 14 -6 0 -10 -15 -10 -32z"/>
<path d="M2300 7020 c0 -5 5 -10 10 -10 6 0 10 5 10 10 0 6 -4 10 -10 10 -5 0
-10 -4 -10 -10z"/>
<path d="M9190 7020 c0 -5 7 -10 15 -10 8 0 15 5 15 10 0 6 -7 10 -15 10 -8 0
-15 -4 -15 -10z"/>
<path d="M8099 6926 c-2 -2 -2 -32 -1 -65 l4 -61 39 0 39 0 0 65 0 65 -38 0
c-21 0 -41 -2 -43 -4z m59 -64 c2 -33 0 -42 -12 -42 -12 0 -16 11 -16 46 0 59
24 55 28 -4z"/>
<path d="M8286 6923 c-3 -4 -6 -30 -6 -59 0 -57 7 -64 66 -64 l34 0 0 64 0 64
-44 0 c-24 0 -47 -2 -50 -5z"/>
<path d="M8520 6869 c0 -53 2 -59 20 -59 19 0 21 5 18 57 -2 44 -7 57 -20 59
-15 2 -18 -6 -18 -57z"/>
<path d="M8643 6923 c-8 -3 -13 -25 -13 -58 l0 -52 41 -7 c23 -4 43 -5 45 -4
3 4 7 94 5 116 -1 12 -53 16 -78 5z m37 -63 c0 -43 0 -43 -24 -34 -16 6 -22
54 -9 67 19 19 33 5 33 -33z"/>
<path d="M7273 6860 c2 -55 4 -60 25 -60 20 0 22 4 22 60 0 57 -1 60 -25 60
-23 0 -24 -2 -22 -60z"/>
<path d="M7460 6860 l0 -60 35 0 35 0 0 60 0 60 -35 0 -35 0 0 -60z"/>
<path d="M7664 6860 c1 -58 2 -60 29 -60 26 0 27 1 27 60 0 59 0 60 -29 60
-29 0 -29 0 -27 -60z"/>
<path d="M7890 6860 l0 -60 35 0 35 0 0 60 0 60 -35 0 -35 0 0 -60z"/>
<path d="M8800 6860 l0 -60 40 0 40 0 0 60 0 60 -40 0 -40 0 0 -60z"/>
<path d="M8965 6860 l0 -60 38 0 37 0 0 60 0 60 -37 0 -38 0 0 -60z"/>
<path d="M9320 6860 l0 -60 35 0 35 0 0 60 0 60 -35 0 -35 0 0 -60z"/>
<path d="M9480 6860 l0 -60 30 0 30 0 0 60 0 60 -30 0 -30 0 0 -60z"/>
<path d="M668 6817 c-21 -6 -38 -15 -38 -20 0 -5 7 -7 15 -4 16 7 31 -49 22
-83 -4 -17 0 -20 24 -20 l29 0 0 70 c0 39 -3 69 -7 69 -5 -1 -25 -6 -45 -12z"/>
<path d="M790 6755 l0 -65 65 0 65 0 0 65 0 65 -65 0 -65 0 0 -65z m84 13 c12
-47 8 -58 -25 -58 -28 0 -31 3 -25 23 3 12 6 30 6 40 0 26 36 21 44 -5z"/>
<path d="M979 6815 c-1 -3 -2 -32 -3 -65 l-1 -60 68 0 67 0 0 65 0 65 -65 0
c-36 0 -66 -2 -66 -5z m91 -64 c0 -26 -5 -41 -16 -45 -36 -14 -44 -7 -44 39 0
43 1 45 30 45 28 0 30 -2 30 -39z"/>
<path d="M1170 6753 l0 -63 65 0 65 0 0 66 0 65 -65 -3 -65 -3 0 -62z m82 9
c6 -40 0 -52 -27 -52 -20 0 -22 5 -21 40 1 34 4 40 22 40 16 0 23 -7 26 -28z"/>
<path d="M1403 6813 c-26 -5 -31 -33 -7 -33 14 0 16 -8 12 -45 l-6 -45 39 0
39 0 0 65 c0 65 0 65 -27 64 -16 -1 -38 -4 -50 -6z"/>
<path d="M1550 6755 l0 -65 60 0 60 0 0 65 0 65 -60 0 -60 0 0 -65z m57 -22
c-3 -10 -5 -2 -5 17 0 19 2 27 5 18 2 -10 2 -26 0 -35z"/>
<path d="M1730 6755 l0 -65 65 0 65 0 0 65 0 65 -65 0 -65 0 0 -65z m70 0 c0
-24 -5 -35 -15 -35 -10 0 -15 11 -15 35 0 24 5 35 15 35 10 0 15 -11 15 -35z"/>
<path d="M1944 6805 c-3 -8 2 -22 11 -31 12 -12 15 -27 12 -51 -5 -31 -4 -33
21 -33 27 0 27 1 27 65 l0 65 -33 0 c-20 0 -35 -6 -38 -15z"/>
<path d="M2140 6760 l0 -60 45 0 45 0 0 60 0 60 -45 0 -45 0 0 -60z"/>
<path d="M2757 6813 c-9 -8 -9 -51 -1 -92 5 -21 12 -31 25 -31 17 0 19 8 19
65 0 56 -2 65 -18 65 -10 0 -22 -3 -25 -7z"/>
<path d="M673 6593 c-20 -3 -33 -10 -33 -18 0 -8 6 -12 14 -9 11 4 17 -4 21
-30 4 -19 4 -39 1 -45 -6 -9 31 -27 39 -19 9 9 9 121 0 123 -5 1 -25 0 -42 -2z"/>
<path d="M1257 6578 c12 -6 24 -22 26 -37 3 -19 4 -16 6 12 1 34 -1 37 -26 36
-27 0 -27 -1 -6 -11z"/>
<path d="M1370 6536 c0 -53 1 -55 28 -54 15 0 32 -1 37 -2 6 -1 20 -2 33 -1
20 1 22 6 22 56 l0 55 -60 0 -60 0 0 -54z m80 17 c0 -10 3 -28 6 -40 5 -19 2
-23 -15 -23 -18 0 -21 6 -21 40 0 29 4 40 15 40 8 0 15 -8 15 -17z"/>
<path d="M1550 6536 l0 -54 56 -4 c31 -1 58 -1 60 1 2 2 4 28 4 58 l0 53 -60
0 -60 0 0 -54z m100 25 c0 -6 -4 -13 -10 -16 -5 -3 -10 -12 -10 -18 0 -8 3 -8
9 1 6 10 10 8 13 -10 4 -20 0 -24 -23 -26 -22 -2 -27 3 -33 29 -3 17 -3 35 0
40 7 12 54 12 54 0z"/>
<path d="M1740 6551 c0 -22 -3 -46 -6 -55 -4 -11 0 -16 13 -16 14 0 19 8 21
33 2 17 7 34 12 35 6 2 8 8 4 13 -3 5 -1 9 4 9 13 0 24 -62 16 -84 -6 -17 4
-20 30 -10 12 5 16 20 16 60 l0 54 -55 0 -55 0 0 -39z"/>
<path d="M1953 6573 c-4 -9 -1 -19 5 -21 7 -2 12 -21 12 -43 0 -35 3 -39 25
-39 24 0 25 3 25 60 l0 60 -30 0 c-20 0 -33 -6 -37 -17z"/>
<path d="M2117 6583 c-4 -3 -7 -28 -7 -54 l0 -48 45 -7 c67 -10 75 -3 75 61
l0 55 -53 0 c-30 0 -57 -3 -60 -7z m76 -55 c6 -39 1 -49 -18 -41 -20 7 -20 73
-1 73 8 0 16 -14 19 -32z"/>
<path d="M2350 6583 c-51 -5 -60 -14 -60 -65 0 -30 4 -38 18 -37 10 0 12 3 5
6 -8 3 -12 20 -12 41 l2 37 6 -31 c5 -26 9 -30 26 -23 14 5 15 8 5 8 -18 1
-22 41 -4 41 27 0 32 -57 7 -76 -16 -12 -13 -13 25 -14 l42 0 0 60 c0 33 -3
59 -7 58 -5 -1 -28 -3 -53 -5z"/>
<path d="M2524 6568 c3 -13 6 -40 6 -60 0 -31 4 -38 20 -38 18 0 20 7 20 60 0
58 -1 60 -26 60 -22 0 -25 -3 -20 -22z"/>
<path d="M2760 6530 c0 -53 2 -60 20 -60 18 0 20 7 20 60 0 53 -2 60 -20 60
-18 0 -20 -7 -20 -60z"/>
<path d="M1190 6532 c0 -29 4 -52 9 -52 8 0 3 90 -5 99 -2 2 -4 -19 -4 -47z"/>
<path d="M650 6335 c0 -52 2 -55 24 -55 13 0 31 -3 40 -6 14 -5 16 3 16 55 l0
61 -40 0 -40 0 0 -55z"/>
<path d="M1250 6336 c0 -54 1 -56 28 -56 26 0 27 2 26 52 -1 49 -3 53 -28 56
-25 3 -26 2 -26 -52z"/>
<path d="M1400 6335 l0 -55 40 0 c31 0 40 4 41 18 1 9 3 34 4 55 l2 37 -43 0
-44 0 0 -55z"/>
<path d="M1597 6383 c-2 -5 -3 -30 -3 -58 1 -33 5 -50 14 -49 6 1 23 2 37 3
23 1 25 4 25 56 l0 55 -34 0 c-19 0 -37 -3 -39 -7z"/>
<path d="M1770 6335 l0 -55 35 0 35 0 0 55 0 55 -35 0 -35 0 0 -55z"/>
<path d="M1970 6336 c0 -45 3 -55 19 -59 28 -7 31 -1 31 60 0 50 -1 53 -25 53
-24 0 -25 -3 -25 -54z"/>
<path d="M2768 6383 c-14 -4 -18 -15 -18 -59 0 -52 1 -54 28 -54 27 0 28 1 27
57 -1 57 -6 64 -37 56z"/>
<path d="M884 6364 c3 -9 6 -33 6 -55 0 -28 4 -39 15 -39 12 0 15 13 15 55 0
49 -2 55 -21 55 -15 0 -19 -4 -15 -16z"/>
<path d="M1068 6325 c3 -46 7 -55 23 -55 16 0 19 8 19 55 0 50 -2 55 -22 55
-22 0 -23 -4 -20 -55z"/>
<path d="M9498 6373 c-43 -7 -33 -23 15 -24 23 -1 34 -3 23 -6 -15 -4 -17 -11
-13 -39 6 -33 5 -34 -29 -34 -19 0 -34 -4 -34 -10 0 -17 67 -11 86 7 10 10 12
19 6 21 -6 2 -8 10 -5 19 5 12 2 14 -8 9 -8 -4 -6 -1 4 8 21 17 19 50 -3 52
-8 1 -27 -1 -42 -3z"/>
<path d="M7208 6330 c-2 -22 0 -49 4 -61 7 -18 14 -20 51 -15 23 3 43 5 45 5
1 1 2 26 2 56 l0 55 -49 0 -49 0 -4 -40z m73 -23 c6 -36 -2 -47 -37 -47 -11 0
-11 6 -3 27 5 14 8 32 5 39 -2 7 -2 15 2 18 13 14 27 -2 33 -37z"/>
<path d="M7370 6318 c0 -46 2 -50 13 -33 8 10 19 15 25 11 5 -3 13 0 15 6 3 7
6 3 6 -9 1 -13 -3 -23 -9 -23 -5 0 -10 -4 -10 -10 0 -5 10 -10 23 -10 20 0 22
5 25 60 l3 60 -46 0 -45 0 0 -52z"/>
<path d="M7550 6336 c0 -19 5 -38 10 -41 6 -4 8 -11 5 -16 -4 -5 0 -9 7 -9 8
0 15 13 16 32 2 18 7 37 13 43 7 7 8 2 4 -16 -4 -17 -1 -31 9 -42 22 -22 20
-25 -16 -30 -25 -3 -22 -4 15 -5 l47 -2 0 60 0 60 -55 0 -55 0 0 -34z m95 -35
c-3 -6 -11 -11 -16 -11 -5 0 -4 6 3 14 14 16 24 13 13 -3z"/>
<path d="M7730 6320 c0 -41 4 -51 23 -60 21 -11 21 -10 3 4 -18 15 -19 16 -2
16 12 0 16 5 12 15 -3 8 -1 15 5 15 6 0 9 7 6 15 -4 8 -2 17 3 20 18 11 35
-10 35 -42 0 -25 -4 -33 -17 -33 -10 0 -18 -4 -18 -10 0 -11 30 -13 53 -4 11
4 13 13 7 40 -8 33 -5 38 14 35 5 -1 6 5 2 14 -3 9 -6 19 -6 21 0 2 -27 4 -60
4 l-60 0 0 -50z m35 11 c3 -5 1 -12 -5 -16 -6 -4 -8 -11 -5 -16 4 -5 1 -9 -4
-9 -6 0 -10 11 -9 25 2 25 12 32 23 16z"/>
<path d="M7912 6353 c3 -15 12 -17 47 -15 l44 4 -5 -46 c-4 -34 -2 -46 8 -46
19 0 27 18 31 72 l3 48 -66 0 c-57 0 -65 -2 -62 -17z"/>
<path d="M8092 6313 c3 -55 4 -56 33 -59 17 -1 45 0 63 3 32 5 32 6 32 59 l0
54 -65 0 -66 0 3 -57z m80 -8 c5 -41 3 -44 -20 -38 -12 3 -16 13 -15 36 2 40
1 37 17 37 8 0 15 -14 18 -35z"/>
<path d="M8280 6316 c0 -39 4 -55 15 -60 8 -3 15 -1 15 4 0 6 -4 10 -10 10 -5
0 -10 16 -10 35 0 25 4 35 16 35 8 0 12 5 9 10 -4 6 7 10 24 10 28 0 31 -3 32
-32 0 -18 4 -42 8 -53 6 -14 10 -4 12 38 l4 57 -57 0 -58 0 0 -54z"/>
<path d="M8460 6333 c0 -49 10 -84 21 -77 5 3 5 14 -1 25 -8 14 -7 19 3 19 8
0 14 7 14 15 0 11 -4 12 -14 4 -7 -6 -13 -7 -13 -2 0 16 24 33 47 33 20 0 23
-5 23 -40 0 -33 -3 -40 -20 -40 -11 0 -20 -4 -20 -9 0 -6 18 -9 40 -9 l40 0 0
59 0 59 -60 0 -60 0 0 -37z"/>
<path d="M8661 6351 c0 -11 2 -12 6 -3 2 6 9 10 14 7 5 -4 16 -2 25 3 12 6 8
9 -15 9 -22 0 -31 -5 -30 -16z"/>
<path d="M8860 6315 c0 -46 3 -55 18 -55 13 0 14 2 4 9 -11 7 -11 9 2 14 18 7
22 27 5 27 -5 0 -7 -5 -3 -12 4 -7 3 -8 -4 -4 -30 18 2 56 47 56 18 0 21 -6
21 -45 0 -43 -1 -45 -25 -39 -15 4 -25 2 -25 -5 0 -6 17 -11 40 -11 l40 0 0
60 0 60 -60 0 -60 0 0 -55z"/>
<path d="M9070 6345 c0 -16 6 -25 16 -25 13 0 15 -8 12 -35 -4 -34 -3 -35 29
-35 l33 0 0 60 0 60 -45 0 c-41 0 -45 -2 -45 -25z"/>
<path d="M9240 6360 c0 -5 5 -10 10 -10 6 0 10 5 10 10 0 6 -4 10 -10 10 -5 0
-10 -4 -10 -10z"/>
<path d="M9270 6360 c0 -5 13 -10 29 -10 17 0 33 5 36 10 4 6 -8 10 -29 10
-20 0 -36 -4 -36 -10z"/>
<path d="M9357 6363 c-2 -5 0 -21 4 -38 7 -29 7 -29 8 8 1 35 -3 46 -12 30z"/>
<path d="M9430 6310 c0 -33 3 -60 8 -60 4 0 7 27 7 60 0 33 -3 60 -7 60 -5 0
-8 -27 -8 -60z"/>
<path d="M9618 6310 c2 -33 8 -60 13 -60 14 0 29 46 29 86 0 29 -4 34 -22 34
-22 0 -23 -3 -20 -60z"/>
<path d="M9467 6316 c-4 -15 -6 -31 -2 -34 10 -10 16 6 13 35 l-3 28 -8 -29z"/>
<path d="M7947 6323 c-3 -5 -1 -17 4 -28 7 -17 8 -17 8 8 1 27 -4 34 -12 20z"/>
<path d="M8301 6314 c0 -11 3 -14 6 -6 3 7 2 16 -1 19 -3 4 -6 -2 -5 -13z"/>
<path d="M8664 6296 c1 -36 23 -66 23 -31 0 8 -4 15 -8 15 -4 0 -10 12 -12 28
-3 17 -4 12 -3 -12z"/>
<path d="M9320 6310 c0 -11 4 -20 9 -20 5 0 7 9 4 20 -3 11 -7 20 -9 20 -2 0
-4 -9 -4 -20z"/>
<path d="M9242 6300 c0 -14 2 -19 5 -12 2 6 2 18 0 25 -3 6 -5 1 -5 -13z"/>
<path d="M7950 6260 c0 -5 7 -10 15 -10 8 0 15 5 15 10 0 6 -7 10 -15 10 -8 0
-15 -4 -15 -10z"/>
<path d="M8340 6260 l-25 -8 28 -1 c15 -1 27 4 27 9 0 6 -1 10 -2 9 -2 -1 -14
-5 -28 -9z"/>
<path d="M9240 6266 c0 -2 7 -6 15 -10 8 -3 15 -1 15 4 0 6 -7 10 -15 10 -8 0
-15 -2 -15 -4z"/>
<path d="M9280 6258 c0 -4 14 -8 32 -8 17 0 28 3 24 7 -10 10 -56 11 -56 1z"/>
<path d="M660 6171 c0 -6 5 -13 10 -16 6 -3 10 -26 10 -51 0 -40 2 -44 25 -44
24 0 25 3 25 60 l0 60 -35 0 c-19 0 -35 -4 -35 -9z"/>
<path d="M880 6120 c0 -53 2 -60 20 -60 18 0 20 7 20 60 0 53 -2 60 -20 60
-18 0 -20 -7 -20 -60z"/>
<path d="M1070 6120 c0 -53 2 -60 20 -60 18 0 20 7 20 60 0 53 -2 60 -20 60
-18 0 -20 -7 -20 -60z"/>
<path d="M1250 6125 c0 -52 1 -55 25 -55 24 0 25 3 25 55 0 52 -1 55 -25 55
-24 0 -25 -3 -25 -55z"/>
<path d="M1410 6127 l0 -55 35 -4 35 -4 0 48 c0 26 1 51 3 56 1 4 -15 8 -35
10 l-38 3 0 -54z"/>
<path d="M1594 6166 c-3 -7 -4 -33 -2 -57 3 -43 4 -44 41 -47 l37 -2 0 60 0
60 -35 0 c-21 0 -38 -6 -41 -14z"/>
<path d="M1770 6120 l0 -61 38 3 37 3 0 55 0 55 -37 3 -38 3 0 -61z"/>
<path d="M1970 6120 c0 -53 2 -60 20 -60 18 0 20 7 20 60 0 53 -2 60 -20 60
-18 0 -20 -7 -20 -60z"/>
<path d="M2163 6173 c-20 -4 -23 -11 -23 -54 0 -37 4 -49 15 -49 11 0 15 12
16 48 l1 47 10 -53 c9 -50 11 -53 36 -50 25 3 27 6 27 58 0 54 0 55 -30 56
-16 1 -40 0 -52 -3z"/>
<path d="M2307 6167 c-10 -27 -8 -80 4 -97 8 -12 9 -10 4 9 -4 13 -3 26 2 30
4 3 6 22 3 41 -4 27 -7 31 -13 17z"/>
<path d="M2337 6173 c-4 -3 -7 -13 -7 -22 0 -12 3 -12 12 -3 7 7 22 12 34 12
18 0 24 -7 27 -32 3 -29 4 -27 5 10 2 41 1 42 -31 42 -19 0 -37 -3 -40 -7z"/>
<path d="M2490 6171 c0 -4 7 -16 16 -27 8 -10 13 -14 10 -7 -8 16 49 27 71 14
10 -6 12 -11 6 -11 -20 0 -17 -80 2 -80 11 0 15 12 17 40 1 22 2 48 2 58 1 14
-9 17 -61 18 -35 1 -63 -2 -63 -5z"/>
<path d="M2500 6082 c0 -5 7 -9 15 -9 8 0 12 4 9 9 -3 4 -9 8 -15 8 -5 0 -9
-4 -9 -8z"/>
<path d="M2368 6063 c6 -2 18 -2 25 0 6 3 1 5 -13 5 -14 0 -19 -2 -12 -5z"/>
<path d="M7788 5992 l-38 -3 0 -70 0 -69 60 0 60 0 0 73 c0 80 4 77 -82 69z
m40 -70 c3 -37 1 -42 -17 -42 -18 0 -21 6 -21 46 0 38 3 45 18 42 12 -2 18
-15 20 -46z"/>
<path d="M8365 5990 c-3 -5 -15 -10 -26 -10 -14 0 -19 -5 -17 -17 2 -11 11
-17 21 -15 14 2 17 -5 17 -43 0 -42 2 -45 28 -45 l27 0 -3 70 c-3 60 -6 70
-22 70 -10 0 -22 -4 -25 -10z"/>
<path d="M8533 5988 c-24 -12 -30 -32 -13 -43 6 -3 10 -1 10 4 0 6 5 11 10 11
15 0 12 -87 -2 -93 -7 -2 4 -6 25 -8 l37 -5 0 73 c0 69 -1 73 -22 72 -13 0
-33 -5 -45 -11z"/>
<path d="M8918 5992 l-58 -3 0 -64 0 -65 63 0 62 0 -3 52 c-5 88 -1 83 -64 80z
m20 -69 c3 -40 1 -43 -22 -43 -24 0 -26 3 -26 46 0 41 2 45 23 42 18 -2 23
-10 25 -45z"/>
<path d="M9048 5991 c-1 -3 -2 -34 -3 -68 l-1 -63 61 0 60 0 0 68 0 67 -57 1
c-32 0 -59 -2 -60 -5z m72 -66 c0 -39 -3 -45 -21 -45 -15 0 -19 4 -15 16 3 9
6 29 6 45 0 19 5 29 15 29 11 0 15 -12 15 -45z"/>
<path d="M9463 5993 l-53 -4 0 -65 0 -64 65 0 66 0 -3 67 c-2 36 -7 67 -13 68
-5 0 -34 -1 -62 -2z m35 -70 c3 -40 1 -43 -22 -43 -24 0 -26 3 -26 46 0 41 2
45 23 42 18 -2 23 -10 25 -45z"/>
<path d="M9604 5985 c-8 -19 3 -48 15 -41 5 3 12 -14 15 -39 5 -29 12 -45 22
-45 11 0 14 16 14 70 l0 70 -30 0 c-18 0 -33 -6 -36 -15z"/>
<path d="M7560 5926 c0 -63 0 -64 32 -70 17 -3 47 -3 65 0 l33 6 0 64 0 64
-65 0 -65 0 0 -64z m88 -3 c3 -40 1 -43 -22 -43 -24 0 -26 3 -26 46 0 41 2 45
23 42 18 -2 23 -10 25 -45z"/>
<path d="M7930 5920 l0 -70 60 0 60 0 1 38 c1 20 3 52 5 70 l4 32 -65 0 -65 0
0 -70z m81 43 c0 -5 2 -25 4 -45 2 -21 0 -38 -5 -38 -4 0 -15 -3 -24 -6 -13
-5 -16 2 -16 38 0 25 3 48 7 51 9 9 33 9 34 0z"/>
<path d="M8100 5925 l0 -65 65 0 65 0 0 65 0 65 -65 0 -65 0 0 -65z m98 -2
c-3 -33 -7 -38 -30 -41 -27 -3 -28 -1 -28 37 0 39 1 41 31 41 29 0 30 -2 27
-37z"/>
<path d="M8670 5925 l0 -65 65 0 65 0 0 65 0 65 -65 0 -65 0 0 -65z m84 29 c3
-9 6 -29 6 -45 0 -24 -4 -29 -25 -29 -23 0 -25 4 -25 45 0 37 3 45 19 45 10 0
22 -7 25 -16z"/>
<path d="M9220 5925 l0 -65 68 0 67 0 -3 65 -4 65 -64 0 -64 0 0 -65z m90 0
c0 -41 -2 -45 -25 -45 -23 0 -25 4 -25 45 0 41 2 45 25 45 23 0 25 -4 25 -45z"/>
<path d="M660 5911 l0 -61 39 0 39 0 -2 58 -1 57 -37 3 -38 3 0 -60z"/>
<path d="M862 5913 c3 -55 4 -58 31 -61 27 -3 27 -3 27 57 l0 61 -30 0 -31 0
3 -57z"/>
<path d="M1060 5915 c0 -48 2 -55 20 -55 18 0 20 7 20 55 0 48 -2 55 -20 55
-18 0 -20 -7 -20 -55z"/>
<path d="M1430 5909 c0 -56 1 -60 22 -57 19 3 22 10 25 61 3 55 2 57 -22 57
-24 0 -25 -3 -25 -61z"/>
<path d="M1604 5956 c-3 -7 -4 -33 -2 -57 3 -41 5 -44 33 -44 30 0 30 1 33 58
l3 57 -31 0 c-17 0 -33 -6 -36 -14z"/>
<path d="M1780 5912 l0 -59 30 5 c29 4 30 6 30 58 0 53 0 54 -30 54 -30 0 -30
0 -30 -58z"/>
<path d="M1945 5960 c-27 -7 -28 -8 -9 -15 16 -5 21 -16 22 -45 1 -30 -1 -38
-13 -34 -7 3 -16 15 -18 27 -3 15 -5 11 -6 -10 l-1 -33 55 0 c61 0 75 13 75
73 0 47 -28 57 -105 37z m58 -17 c3 -5 7 -24 9 -43 2 -29 0 -35 -16 -35 -15 0
-20 9 -23 43 -3 32 -1 42 11 42 8 0 17 -3 19 -7z m24 -40 c-3 -10 -5 -4 -5 12
0 17 2 24 5 18 2 -7 2 -21 0 -30z"/>
<path d="M2154 5953 c3 -8 6 -35 6 -60 0 -53 21 -55 32 -2 9 44 2 66 -23 72
-15 4 -19 2 -15 -10z"/>
<path d="M2959 5945 c-5 -90 -3 -95 36 -95 l35 0 0 60 0 60 -35 0 c-30 0 -35
-3 -36 -25z"/>
<path d="M7967 5763 c-13 -13 -7 -32 8 -27 12 5 15 -2 15 -28 0 -19 -5 -39
-12 -46 -9 -9 -4 -12 25 -12 l37 0 0 60 0 60 -33 0 c-19 0 -37 -3 -40 -7z"/>
<path d="M8697 5764 c-14 -14 -7 -24 18 -24 22 0 25 -4 25 -35 0 -22 -6 -38
-17 -44 -14 -8 -9 -10 25 -11 l43 0 -3 58 -3 57 -40 3 c-23 2 -44 0 -48 -4z"/>
<path d="M9267 5763 c-14 -13 -6 -23 18 -23 23 0 24 -2 18 -45 -6 -44 -5 -45
21 -45 25 0 26 2 26 60 l0 60 -38 0 c-21 0 -42 -3 -45 -7z"/>
<path d="M9453 5763 c-22 -8 -14 -23 12 -23 22 0 25 -4 25 -39 0 -29 -5 -41
-17 -44 -10 -3 1 -5 25 -6 l42 -1 0 60 0 60 -37 -1 c-21 0 -44 -3 -50 -6z"/>
<path d="M9610 5711 l0 -61 40 0 40 0 0 55 c0 52 -2 55 -24 55 -13 0 -31 3
-40 6 -14 5 -16 -3 -16 -55z"/>
<path d="M650 5745 c0 -8 7 -15 15 -15 11 0 15 -12 15 -45 0 -41 2 -45 25 -45
24 0 25 3 25 60 l0 60 -40 0 c-29 0 -40 -4 -40 -15z"/>
<path d="M851 5748 c1 -7 5 -24 9 -38 l8 -25 1 28 c2 45 19 30 29 -25 8 -48 9
-51 16 -25 5 15 5 43 2 62 -6 31 -11 35 -36 35 -18 0 -30 -5 -29 -12z"/>
<path d="M1367 5753 c-18 -17 -2 -113 18 -113 16 0 25 23 25 66 0 31 3 34 30
34 28 0 30 -2 30 -40 0 -22 5 -40 10 -40 6 0 10 22 10 49 l0 48 -58 2 c-32 0
-62 -2 -65 -6z m20 -55 c-3 -7 -5 -2 -5 12 0 14 2 19 5 13 2 -7 2 -19 0 -25z"/>
<path d="M1540 5698 c0 -45 3 -58 15 -58 8 0 15 5 15 11 0 6 7 17 15 25 8 8
11 22 7 32 -6 16 -7 16 -10 0 -2 -10 -7 -18 -12 -18 -9 0 -1 40 9 40 3 0 16 3
29 6 21 6 22 3 22 -46 0 -44 3 -51 18 -48 13 2 18 15 20 56 3 44 0 52 -15 53
-10 0 -39 1 -66 2 l-47 2 0 -57z"/>
<path d="M1904 5735 c3 -11 6 -37 6 -57 0 -21 5 -38 10 -38 6 0 10 23 10 50 0
28 5 50 10 50 12 0 14 -11 11 -62 -3 -37 -2 -38 33 -38 30 0 36 3 37 23 0 12
1 36 2 54 l2 32 -63 3 c-59 3 -63 2 -58 -17z m76 -79 c-7 -7 -10 1 -9 25 0 32
1 33 10 10 6 -16 6 -28 -1 -35z"/>
<path d="M2080 5701 c0 -53 3 -60 28 -76 15 -10 21 -12 15 -4 -8 7 -13 39 -13
76 0 49 -3 63 -15 63 -12 0 -15 -13 -15 -59z"/>
<path d="M2338 5752 c-64 -4 -62 -17 2 -15 48 1 50 0 49 -25 0 -24 -1 -25 -9
-7 -8 18 -9 18 -9 -5 -1 -15 7 -30 19 -38 19 -12 20 -10 20 41 0 37 -4 53 -12
53 -7 -1 -34 -2 -60 -4z"/>
<path d="M7600 5700 c0 -53 2 -60 20 -60 15 0 20 7 20 29 0 16 3 43 6 60 6 28
4 31 -20 31 -25 0 -26 -2 -26 -60z"/>
<path d="M7760 5700 l0 -60 40 0 40 0 0 60 0 60 -40 0 -40 0 0 -60z"/>
<path d="M8150 5703 l0 -58 35 0 35 0 0 58 0 57 -35 0 -35 0 0 -57z"/>
<path d="M8350 5706 c0 -49 2 -54 25 -58 24 -5 25 -4 25 53 0 56 -1 59 -25 59
-24 0 -25 -3 -25 -54z"/>
<path d="M8560 5705 c0 -47 3 -55 19 -55 16 0 20 9 23 55 3 51 2 55 -19 55
-21 0 -23 -5 -23 -55z"/>
<path d="M8882 5705 l3 -55 48 0 47 0 0 55 0 55 -50 0 -50 0 2 -55z"/>
<path d="M9084 5705 l-1 -55 38 0 39 0 0 55 0 55 -38 0 -38 0 0 -55z"/>
<path d="M997 5713 c1 -21 2 -46 2 -55 1 -13 9 -18 27 -18 25 0 26 1 20 45 -6
37 -4 45 8 45 15 0 21 -25 19 -77 -1 -7 8 -13 18 -13 16 0 19 8 19 55 l0 55
-57 0 -58 0 2 -37z"/>
<path d="M1174 5735 c-3 -8 -4 -20 -1 -27 4 -8 6 -6 6 5 1 12 9 17 31 17 28 0
30 -2 30 -39 0 -22 -6 -42 -12 -45 -7 -4 5 -4 26 -1 46 5 56 17 56 68 l0 37
-65 0 c-48 0 -67 -4 -71 -15z m109 -12 c-7 -2 -19 -2 -25 0 -7 3 -2 5 12 5 14
0 19 -2 13 -5z m1 -29 c11 -28 6 -38 -9 -18 -8 10 -15 22 -15 27 0 13 18 7 24
-9z"/>
<path d="M1720 5708 c0 -46 17 -84 27 -60 4 10 8 10 21 0 13 -12 14 -10 3 9
-6 13 -17 22 -23 20 -7 -1 -13 10 -13 26 -1 15 3 27 8 27 5 0 7 -10 3 -23 -4
-17 -1 -24 10 -24 11 0 14 7 11 24 -5 26 4 36 25 28 7 -3 14 -22 15 -46 1 -46
6 -54 28 -46 11 5 15 21 15 57 l0 50 -65 0 -65 0 0 -42z"/>
<path d="M2537 5713 c8 -52 13 -54 13 -5 0 23 -4 42 -9 42 -6 0 -7 -17 -4 -37z"/>
<path d="M1440 5690 c0 -16 5 -30 10 -30 6 0 10 14 10 30 0 17 -4 30 -10 30
-5 0 -10 -13 -10 -30z"/>
<path d="M1193 5683 c-18 -6 -16 -43 1 -43 7 0 16 9 19 20 6 22 -1 30 -20 23z"/>
<path d="M2290 5665 c0 -17 6 -25 17 -25 13 0 14 3 6 11 -6 6 -9 18 -6 25 3 8
0 14 -6 14 -6 0 -11 -11 -11 -25z"/>
<path d="M1580 5650 c0 -5 7 -10 16 -10 8 0 12 5 9 10 -3 6 -10 10 -16 10 -5
0 -9 -4 -9 -10z"/>
<path d="M2330 5650 c0 -5 9 -10 21 -10 11 0 17 5 14 10 -3 6 -13 10 -21 10
-8 0 -14 -4 -14 -10z"/>
<path d="M7770 5500 l0 -60 40 0 40 0 0 60 0 60 -40 0 -40 0 0 -60z"/>
<path d="M7970 5500 l0 -60 40 0 40 0 0 60 0 60 -40 0 -40 0 0 -60z"/>
<path d="M8150 5500 l0 -60 35 0 35 0 0 60 0 60 -35 0 -35 0 0 -60z"/>
<path d="M8350 5505 l0 -55 33 0 32 0 -3 55 c-4 53 -5 55 -33 55 -29 0 -29 -1
-29 -55z"/>
<path d="M8539 5553 c-1 -11 2 -98 4 -99 1 -1 17 -5 35 -9 l32 -7 0 61 0 61
-35 0 c-19 0 -35 -3 -36 -7z"/>
<path d="M8920 5537 c0 -54 12 -87 32 -87 17 0 19 6 16 53 -3 45 -6 52 -25 55
-19 3 -23 -1 -23 -21z"/>
<path d="M9100 5506 l0 -54 35 -4 c40 -5 45 3 45 68 l0 44 -40 0 -40 0 0 -54z"/>
<path d="M9287 5553 c-4 -3 -7 -28 -7 -55 l0 -48 35 0 35 0 0 55 c0 54 -1 55
-28 55 -16 0 -32 -3 -35 -7z"/>
<path d="M9480 5506 c0 -49 2 -54 25 -58 24 -5 25 -4 25 53 0 56 -1 59 -25 59
-24 0 -25 -3 -25 -54z"/>
<path d="M657 5543 c-11 -11 -8 -23 6 -20 8 1 13 -14 15 -45 3 -43 5 -48 28
-48 23 0 24 3 24 60 l0 60 -33 0 c-19 0 -37 -3 -40 -7z"/>
<path d="M890 5495 c0 -48 2 -55 20 -55 18 0 20 7 20 55 0 48 -2 55 -20 55
-18 0 -20 -7 -20 -55z"/>
<path d="M1040 5495 l0 -55 35 0 35 0 0 55 0 55 -35 0 -35 0 0 -55z"/>
<path d="M1230 5495 l0 -55 35 0 35 0 0 55 0 55 -35 0 -35 0 0 -55z"/>
<path d="M1410 5495 l0 -55 40 0 40 0 0 55 0 55 -40 0 -40 0 0 -55z"/>
<path d="M1590 5495 l0 -55 35 0 35 0 0 55 0 55 -35 0 -35 0 0 -55z"/>
<path d="M1768 5495 l4 -55 39 0 39 0 0 55 0 55 -42 0 -43 0 3 -55z"/>
<path d="M1950 5495 l0 -55 40 0 40 0 0 55 0 55 -40 0 -40 0 0 -55z"/>
<path d="M2150 5492 l0 -58 35 4 35 4 0 54 0 54 -35 0 -35 0 0 -58z"/>
<path d="M2560 5495 c0 -54 0 -55 30 -55 30 0 30 1 30 55 0 54 0 55 -30 55
-30 0 -30 -1 -30 -55z"/>
<path d="M2750 5495 c0 -52 1 -55 25 -55 24 0 25 3 25 55 0 52 -1 55 -25 55
-24 0 -25 -3 -25 -55z"/>
<path d="M8573 5363 c-30 -4 -33 -8 -33 -36 0 -62 9 -77 46 -77 l34 0 0 60 c0
33 -3 59 -7 58 -5 0 -23 -3 -40 -5z"/>
<path d="M8933 5362 c-33 -3 -33 -4 -33 -58 l0 -54 40 0 40 0 0 54 c0 30 -3
56 -7 58 -5 2 -23 2 -40 0z"/>
<path d="M9104 5333 c3 -21 6 -48 6 -60 0 -19 6 -23 30 -23 l30 0 0 60 0 60
-36 0 -37 0 7 -37z m23 -45 c-3 -7 -5 -2 -5 12 0 14 2 19 5 13 2 -7 2 -19 0
-25z"/>
<path d="M8001 5351 c-21 -13 -5 -111 19 -111 13 0 19 11 23 51 8 67 -4 84
-42 60z"/>
<path d="M8360 5305 c0 -52 1 -55 25 -55 24 0 25 3 25 55 0 52 -1 55 -25 55
-24 0 -25 -3 -25 -55z"/>
<path d="M8734 5344 c3 -9 6 -33 6 -55 0 -37 2 -39 30 -39 30 0 30 1 30 55 l0
55 -36 0 c-29 0 -35 -3 -30 -16z"/>
<path d="M9294 5343 c3 -10 8 -35 12 -55 4 -28 11 -38 25 -38 16 0 19 8 19 55
0 55 0 55 -31 55 -24 0 -29 -4 -25 -17z"/>
<path d="M9474 5344 c3 -9 6 -33 6 -55 0 -35 3 -39 25 -39 24 0 25 3 25 55 0
55 0 55 -31 55 -24 0 -30 -3 -25 -16z"/>
<path d="M650 5280 l0 -60 38 0 37 0 0 60 0 60 -37 0 -38 0 0 -60z"/>
<path d="M890 5280 c0 -44 4 -60 14 -60 16 0 26 30 26 83 0 30 -4 37 -20 37
-18 0 -20 -7 -20 -60z"/>
<path d="M1070 5280 c0 -53 2 -60 20 -60 18 0 20 7 20 60 0 53 -2 60 -20 60
-18 0 -20 -7 -20 -60z"/>
<path d="M1190 5320 c0 -22 15 -27 23 -7 3 6 6 0 6 -15 1 -16 -3 -28 -9 -28
-5 0 -10 -5 -10 -11 0 -5 4 -8 9 -4 5 3 17 -2 25 -11 10 -9 16 -11 16 -4 0 6
6 10 13 7 6 -2 11 -10 10 -16 -4 -17 24 -13 31 5 3 9 6 36 6 60 l0 44 -60 0
c-53 0 -60 -2 -60 -20z"/>
<path d="M1390 5315 c0 -15 6 -25 15 -25 11 0 13 -8 10 -32 l-5 -33 14 35 c11
27 15 30 15 13 1 -35 12 -53 32 -53 17 0 19 8 19 60 l0 60 -50 0 c-47 0 -50
-2 -50 -25z"/>
<path d="M1550 5295 c0 -25 5 -45 11 -45 5 0 7 -4 4 -10 -4 -6 1 -7 11 -3 12
4 15 3 10 -5 -5 -8 4 -12 28 -12 19 0 38 5 41 10 4 6 11 8 16 5 5 -4 9 8 9 25
0 18 -4 29 -10 25 -7 -4 -7 2 -1 18 6 14 7 28 4 31 -4 3 -33 6 -65 6 l-58 0 0
-45z m92 -15 c3 -36 1 -40 -19 -40 -19 0 -23 5 -23 33 0 36 6 47 26 47 7 0 14
-17 16 -40z"/>
<path d="M1754 5324 c3 -9 7 -37 7 -62 2 -46 2 -46 9 -12 7 32 10 35 14 13 1
-5 5 -13 9 -20 4 -6 1 -14 -5 -16 -7 -3 6 -6 28 -6 40 -1 42 0 48 37 13 82 13
82 -55 82 -52 0 -60 -2 -55 -16z m78 -59 c3 -24 0 -35 -9 -35 -8 0 -13 13 -13
35 0 19 4 35 9 35 5 0 11 -16 13 -35z"/>
<path d="M1960 5320 c0 -13 7 -20 20 -20 17 0 20 -7 20 -40 0 -33 3 -40 20
-40 18 0 20 7 20 60 l0 60 -40 0 c-33 0 -40 -3 -40 -20z"/>
<path d="M2140 5313 c0 -16 4 -23 8 -17 10 16 44 30 67 30 16 -1 21 -10 25
-46 7 -61 24 -57 28 8 l3 52 -65 0 c-65 0 -66 0 -66 -27z"/>
<path d="M2321 5280 c2 -64 7 -72 27 -40 10 17 10 20 -3 20 -10 0 -14 9 -13
25 2 15 7 24 15 21 6 -3 13 0 15 6 2 5 20 10 41 10 20 0 37 4 37 9 0 5 -27 9
-60 9 l-60 0 1 -60z"/>
<path d="M2412 5280 c0 -14 2 -19 5 -12 2 6 2 18 0 25 -3 6 -5 1 -5 -13z"/>
<path d="M2432 5270 c0 -19 2 -27 5 -17 2 9 2 25 0 35 -3 9 -5 1 -5 -18z"/>
<path d="M2205 5230 c-3 -5 -1 -10 4 -10 6 0 11 5 11 10 0 6 -2 10 -4 10 -3 0
-8 -4 -11 -10z"/>
<path d="M2350 5229 c0 -5 10 -9 22 -9 12 0 18 3 14 7 -10 11 -36 12 -36 2z"/>
<path d="M1773 5119 c-16 -7 -16 -8 0 -8 14 -1 17 -10 17 -51 0 -45 2 -50 23
-50 21 0 22 3 19 59 -4 63 -11 69 -59 50z"/>
<path d="M2963 5102 l-33 -3 0 -85 0 -84 55 0 55 0 0 84 c0 93 -2 95 -77 88z"/>
<path d="M9620 4965 c0 -73 1 -75 20 -63 17 11 20 24 20 75 0 56 -2 63 -20 63
-18 0 -20 -7 -20 -75z"/>
<path d="M3270 4980 l0 -50 40 0 40 0 0 50 0 50 -40 0 -40 0 0 -50z"/>
<path d="M8287 5023 c-12 -12 -7 -89 7 -108 11 -16 18 -17 47 -8 26 9 29 11
12 12 -20 1 -23 6 -23 45 0 39 2 44 20 39 14 -4 20 -14 20 -34 0 -19 5 -29 15
-29 11 0 15 12 15 45 l0 45 -53 0 c-30 0 -57 -3 -60 -7z"/>
<path d="M8470 4971 c0 -50 3 -60 18 -60 9 0 29 -3 45 -7 16 -4 27 -2 27 4 0
5 -17 13 -37 17 -21 4 -32 10 -25 12 6 3 12 17 12 33 0 16 -6 31 -12 33 -7 3
4 6 25 6 36 1 37 0 37 -34 0 -19 5 -35 11 -35 5 0 7 -4 4 -10 -3 -5 -1 -10 4
-10 7 0 11 23 11 55 l0 55 -60 0 -60 0 0 -59z m30 -11 c0 -5 -4 -10 -10 -10
-5 0 -10 5 -10 10 0 6 5 10 10 10 6 0 10 -4 10 -10z"/>
<path d="M8668 5023 c7 -3 16 -2 19 1 4 3 -2 6 -13 5 -11 0 -14 -3 -6 -6z"/>
<path d="M8701 5017 c-14 -14 -14 -27 0 -27 5 0 7 5 4 10 -4 6 5 10 19 10 14
0 26 4 26 8 0 12 -36 12 -49 -1z"/>
<path d="M8900 5023 c0 -5 7 -16 14 -26 14 -18 10 -63 -5 -73 -21 -13 -6 -24
31 -24 22 0 40 5 40 11 0 5 -10 9 -22 7 -21 -3 -23 1 -22 42 1 41 3 45 28 48
25 3 26 2 26 -53 0 -48 3 -56 16 -51 9 3 18 6 20 6 2 0 4 27 4 60 l0 60 -65 0
c-36 0 -65 -3 -65 -7z"/>
<path d="M9087 5023 c-4 -3 -7 -28 -7 -54 0 -40 3 -47 23 -51 20 -4 22 -1 22
41 0 39 3 46 20 46 15 0 21 -8 23 -32 2 -18 8 -33 13 -33 6 0 7 -4 4 -10 -3
-5 -1 -10 5 -10 6 0 10 21 9 55 l-2 55 -52 0 c-28 0 -55 -3 -58 -7z"/>
<path d="M9255 5022 c-3 -3 -5 -25 -5 -49 0 -34 4 -43 18 -43 10 0 13 3 7 8
-6 4 -12 22 -13 40 -3 32 -3 32 42 32 47 0 55 -7 35 -27 -9 -9 -8 -16 5 -28 9
-9 16 -13 16 -8 0 4 4 1 10 -7 6 -10 9 2 8 38 l0 53 -59 -2 c-32 -1 -61 -4
-64 -7z"/>
<path d="M9432 4990 c0 -22 5 -40 10 -40 5 0 7 -8 4 -17 -5 -15 1 -18 32 -19
20 -1 29 1 20 3 -13 3 -18 15 -20 41 l-1 37 -4 -33 c-4 -30 -6 -32 -17 -17 -7
10 -11 28 -8 40 3 17 11 22 41 23 28 1 37 -2 38 -16 1 -9 2 -31 4 -49 1 -21 6
-30 15 -26 10 3 14 23 14 59 l0 54 -64 0 -65 0 1 -40z"/>
<path d="M2360 4870 l0 -50 50 0 50 0 0 50 0 50 -50 0 -50 0 0 -50z"/>
<path d="M3040 4870 l0 -50 60 0 60 0 0 50 0 50 -60 0 -60 0 0 -50z"/>
<path d="M9140 4910 c0 -5 7 -7 15 -4 8 4 15 8 15 10 0 2 -7 4 -15 4 -8 0 -15
-4 -15 -10z"/>
<path d="M9333 4913 c9 -2 23 -2 30 0 6 3 -1 5 -18 5 -16 0 -22 -2 -12 -5z"/>
<path d="M765 4889 c-16 -3 -60 -7 -97 -8 l-67 -1 2 -989 2 -989 54 -11 c30
-6 65 -11 77 -11 12 0 29 -7 37 -15 9 -8 48 -20 89 -27 40 -6 80 -17 88 -24 8
-6 47 -17 85 -24 39 -6 93 -20 122 -30 28 -11 74 -22 103 -26 28 -4 57 -12 63
-18 7 -7 54 -21 106 -32 l95 -19 4 -128 c5 -160 2 -175 -41 -179 l-32 -3 0
-295 c0 -162 -1 -319 -3 -349 l-2 -54 -34 6 c-37 6 -46 -4 -46 -49 l0 -24
-128 0 c-71 0 -177 -3 -235 -7 l-107 -6 0 -142 0 -142 73 -9 c62 -8 72 -12 69
-28 -2 -10 1 -15 7 -12 5 4 29 2 53 -4 24 -5 69 -13 102 -16 45 -4 59 -10 63
-24 4 -14 18 -20 59 -26 32 -4 54 -11 54 -18 0 -8 44 -17 135 -25 119 -12 135
-15 135 -31 0 -23 10 -26 135 -40 113 -13 115 -14 115 -40 0 -25 72 -40 208
-41 59 -1 145 -4 192 -7 78 -6 85 -9 88 -29 3 -19 10 -23 36 -23 29 0 34 -4
40 -30 4 -23 11 -30 28 -30 13 0 33 -3 46 -6 21 -6 22 -3 22 41 l0 47 -45 -4
-45 -3 0 37 c0 37 -1 38 -35 38 -28 0 -35 4 -35 20 0 19 7 20 154 20 158 0
186 4 186 24 0 6 9 17 20 24 19 11 20 21 18 110 l-3 97 -40 2 c-101 7 -145 15
-145 28 0 16 -31 25 -92 25 -41 0 -47 3 -50 23 -3 20 -11 23 -80 31 -50 6 -78
14 -78 21 0 7 -18 15 -39 18 -22 3 -54 12 -72 21 -18 9 -38 16 -46 16 -11 0
-13 90 -13 515 l0 515 30 0 c17 0 30 -4 30 -9 0 -5 41 -16 90 -26 50 -10 90
-21 90 -25 0 -5 28 -11 63 -15 34 -4 67 -11 72 -15 6 -4 37 -13 70 -20 33 -7
63 -17 66 -22 3 -5 34 -12 68 -15 33 -3 61 -9 61 -13 0 -8 63 -24 137 -35 33
-5 42 -11 45 -28 4 -28 33 -34 176 -36 l112 -1 0 29 c0 34 14 41 80 41 48 0
48 0 53 38 7 58 3 1999 -5 2007 -4 4 -27 10 -53 12 l-45 6 0 -1016 0 -1015
-91 -7 c-49 -4 -93 -4 -97 0 -4 4 -8 446 -10 984 l-3 977 -87 11 c-48 6 -179
34 -292 62 -113 27 -335 82 -495 121 -159 38 -351 86 -425 104 -129 33 -408
102 -760 187 -166 41 -210 55 -210 71 0 4 11 8 25 8 14 0 25 4 25 9 0 10 -33
10 -75 0z"/>
<path d="M2720 4781 l0 -51 46 0 45 0 -3 48 -3 47 -42 3 -43 3 0 -50z"/>
<path d="M3657 4823 c-4 -3 -7 -28 -7 -55 l0 -48 45 0 45 0 0 55 0 55 -38 0
c-21 0 -42 -3 -45 -7z"/>
<path d="M8318 4760 l-3 -60 33 0 32 0 0 60 c0 60 0 60 -29 60 -29 0 -29 -1
-33 -60z"/>
<path d="M9270 4760 l0 -60 40 0 40 0 0 60 0 60 -40 0 -40 0 0 -60z"/>
<path d="M3184 4779 c3 -17 6 -44 6 -60 0 -28 2 -29 45 -29 l45 0 0 60 0 60
-51 0 -51 0 6 -31z"/>
<path d="M3860 4640 l0 -60 65 0 65 0 0 60 0 60 -65 0 -65 0 0 -60z"/>
<path d="M3433 4633 l-33 -4 0 -80 0 -80 68 3 67 3 0 77 1 76 -29 6 c-16 3
-32 5 -36 4 -3 0 -21 -3 -38 -5z m67 -91 c0 -38 0 -38 -35 -34 -32 4 -35 7
-35 38 0 32 2 34 35 34 34 0 35 -1 35 -38z"/>
<path d="M8690 4560 c0 -57 1 -60 25 -60 24 0 25 3 25 60 0 57 -1 60 -25 60
-24 0 -25 -3 -25 -60z"/>
<path d="M3897 4413 c-4 -3 -7 -30 -7 -60 l0 -53 84 0 84 0 7 50 c4 27 4 54 0
60 -7 11 -157 14 -168 3z"/>
<path d="M8988 4413 c-29 -4 -40 -33 -13 -33 10 0 15 -10 14 -32 0 -28 -2 -30
-9 -13 -7 17 -9 15 -9 -12 -1 -29 2 -33 24 -33 24 0 25 2 25 65 0 36 -1 64 -2
64 -2 -1 -15 -4 -30 -6z"/>
<path d="M8589 4402 c-3 -27 0 -105 5 -110 11 -11 35 33 36 66 0 25 4 32 20
32 16 0 20 -7 21 -37 1 -21 1 -41 0 -45 0 -4 8 -6 19 -5 17 1 20 9 20 53 l0
52 -60 1 c-33 0 -60 -3 -61 -7z"/>
<path d="M8765 4402 c-18 -18 0 -27 49 -24 43 3 54 0 60 -13 4 -13 2 -16 -9
-11 -12 4 -15 -1 -13 -23 1 -21 7 -29 19 -28 14 1 18 13 21 55 l3 53 -62 -2
c-35 -1 -65 -4 -68 -7z"/>
<path d="M9085 4400 c-4 -6 -4 -14 -1 -17 3 -4 6 -1 6 6 0 8 6 9 18 3 9 -5 34
-12 55 -16 32 -6 37 -11 37 -34 0 -20 -3 -23 -9 -12 -6 8 -7 18 -5 22 3 4 0 8
-6 8 -6 0 -10 -10 -8 -22 2 -16 -4 -26 -22 -35 l-25 -11 33 -1 c19 -1 32 4 32
12 0 8 3 7 10 -3 13 -22 18 -11 21 50 l3 55 -66 3 c-41 2 -69 -1 -73 -8z"/>
<path d="M9277 4403 c-4 -3 -6 -20 -6 -37 1 -17 3 -23 6 -13 5 19 18 22 28 7
3 -6 -2 -18 -11 -28 -16 -16 -16 -17 -1 -20 10 -2 15 -7 13 -11 -3 -4 6 -8 20
-9 13 -1 24 3 24 8 0 6 -9 10 -19 10 -11 0 -23 5 -27 12 -4 6 -3 8 3 5 6 -4
13 4 15 18 3 13 0 26 -6 29 -6 2 1 5 17 5 23 1 27 -3 27 -28 0 -17 5 -33 12
-37 7 -4 8 -3 4 5 -4 6 0 25 8 42 9 17 13 35 10 40 -6 10 -107 12 -117 2z"/>
<path d="M9452 4352 c1 -49 2 -51 5 -16 4 39 7 42 40 49 19 3 37 5 39 2 2 -2
4 -24 5 -50 2 -38 5 -45 16 -36 7 7 13 32 13 60 l0 48 -60 0 -60 -1 2 -56z"/>
<path d="M9486 4362 c-2 -4 -1 -14 5 -22 7 -12 9 -10 9 8 0 23 -5 28 -14 14z"/>
<path d="M8626 4301 c9 -9 34 -9 34 -1 0 5 -9 8 -20 7 -10 -1 -17 -3 -14 -6z"/>
<path d="M8800 4306 c0 -2 7 -7 16 -10 8 -3 12 -2 9 4 -6 10 -25 14 -25 6z"/>
<path d="M9510 4300 c0 -5 5 -10 10 -10 6 0 10 5 10 10 0 6 -4 10 -10 10 -5 0
-10 -4 -10 -10z"/>
<path d="M3856 3899 l-7 -59 -54 0 -55 0 0 -60 0 -60 -55 0 -55 0 0 -75 c0
-67 2 -75 19 -75 28 0 91 77 91 111 0 29 1 29 60 29 l60 0 0 65 0 65 50 0 49
0 3 -62 3 -63 48 2 47 1 0 -68 0 -67 46 -7 c78 -10 74 -14 74 74 l0 80 -55 0
-55 0 0 55 0 55 -50 0 -50 0 0 60 0 60 -54 -1 -54 -2 -6 -58z"/>
<path d="M8920 3720 l0 -60 48 0 c26 0 53 5 60 12 7 7 12 34 12 60 l0 48 -60
0 -60 0 0 -60z m80 -1 c0 -10 0 -22 1 -26 0 -5 -7 -9 -15 -11 -12 -3 -16 5
-16 32 0 27 3 34 15 30 8 -4 15 -15 15 -25z"/>
<path d="M9107 3774 c-14 -14 7 -34 38 -34 30 0 32 -2 27 -27 -2 -16 -12 -34
-21 -41 -14 -12 -11 -13 24 -10 l40 3 6 50 c3 27 4 53 2 58 -5 8 -107 10 -116
1z"/>
<path d="M9280 3730 c0 -46 2 -50 24 -50 25 0 36 16 36 56 0 17 4 22 15 18 8
-4 15 -16 15 -28 1 -21 1 -21 15 -2 13 17 15 17 15 4 0 -9 -4 -20 -10 -23 -15
-9 -12 -22 5 -29 12 -4 15 5 15 49 l0 55 -65 0 -65 0 0 -50z m31 1 c6 10 9 8
9 -8 0 -12 -4 -24 -9 -27 -9 -6 -22 17 -20 37 0 7 3 7 6 -2 5 -11 7 -11 14 0z"/>
<path d="M9460 3725 c0 -51 10 -69 25 -45 3 6 2 10 -4 10 -7 0 -7 8 -1 24 5
13 6 27 3 30 -4 3 6 6 20 6 15 0 30 0 33 0 4 0 8 -16 9 -35 2 -32 -4 -40 -27
-36 -5 0 -8 -3 -8 -9 0 -13 26 -13 51 0 15 8 19 22 19 60 l0 50 -60 0 -60 0 0
-55z"/>
<path d="M9497 3720 c-3 -11 -1 -20 4 -20 5 0 9 9 9 20 0 11 -2 20 -4 20 -2 0
-6 -9 -9 -20z"/>
<path d="M3870 3455 l0 -45 45 0 c32 0 45 4 45 14 0 7 3 28 6 45 l7 31 -52 0
-51 0 0 -45z"/>
<path d="M4286 3309 c-4 -22 -4 -44 -1 -50 4 -5 28 -9 56 -9 l49 0 0 50 0 50
-49 0 -48 0 -7 -41z"/>
<path d="M9480 3292 c0 -58 0 -59 30 -59 30 0 30 1 30 59 0 58 0 58 -30 58
-30 0 -30 0 -30 -58z"/>
<path d="M3870 3130 l0 -50 50 0 50 0 0 50 0 50 -50 0 -50 0 0 -50z"/>
<path d="M3654 2931 c-2 -2 -4 -40 -4 -83 l0 -78 43 6 c23 4 45 12 49 18 4 6
8 39 8 74 0 48 -3 62 -15 63 -42 4 -77 4 -81 0z"/>
<path d="M6420 1223 c0 -52 -10 -64 -59 -70 -37 -5 -41 -8 -41 -33 0 -52 -8
-60 -61 -60 l-49 0 0 -50 0 -50 -50 0 -50 0 0 -114 0 -113 50 -7 c47 -6 50 -8
50 -36 0 -27 3 -30 34 -30 18 0 61 -3 95 -6 50 -6 61 -10 61 -25 0 -20 24 -24
162 -33 56 -3 77 -1 75 7 -1 8 18 13 55 15 l57 3 3 37 3 37 78 -2 c76 -3 77
-3 77 22 0 25 1 25 85 25 l85 0 0 41 0 40 55 -6 54 -7 -2 28 c-2 27 1 29 38
34 37 5 40 7 43 40 2 19 1 64 -3 99 l-7 63 -44 -6 -44 -6 0 61 0 61 -55 -7
-55 -6 0 46 0 45 -320 0 -320 0 0 -37z m257 -125 c-3 -8 -6 -5 -6 6 -1 11 2
17 5 13 3 -3 4 -12 1 -19z m-244 -23 c-3 -8 0 -15 6 -15 6 0 11 7 11 16 0 14
3 14 15 4 11 -9 36 -11 78 -8 34 3 52 3 40 1 -13 -2 -24 -12 -24 -21 -1 -9 -2
-28 -3 -42 l-1 -25 -122 -3 -123 -3 0 41 0 40 55 0 c49 0 55 2 55 21 0 11 4
18 10 14 5 -3 7 -12 3 -20z"/>
<path d="M6460 1050 c0 -5 5 -10 10 -10 6 0 10 5 10 10 0 6 -4 10 -10 10 -5 0
-10 -4 -10 -10z"/>
<path d="M6488 1013 c6 -2 18 -2 25 0 6 3 1 5 -13 5 -14 0 -19 -2 -12 -5z"/>
</g>
</svg>
